<?xml version="1.0" standalone="no"?>
<!DOCTYPE svg PUBLIC "-//W3C//DTD SVG 20010904//EN"
 "http://www.w3.org/TR/2001/REC-SVG-20010904/DTD/svg10.dtd">
<svg version="1.0" xmlns="http://www.w3.org/2000/svg"
 width="1024.000000pt" height="1024.000000pt" viewBox="0 0 1024.000000 1024.000000"
 preserveAspectRatio="xMidYMid meet">
<metadata>
Created by potrace 1.14, written by Peter Selinger 2001-2017
</metadata>
<g transform="translate(0.000000,1024.000000) scale(0.100000,-0.100000)"
fill="#000000" stroke="none">
<path d="M0 5120 l0 -5120 4720 0 4720 0 0 80 0 80 320 0 320 0 0 -80 0 -80
80 0 80 0 0 5120 0 5120 -5120 0 -5120 0 0 -5120z m5431 3276 c-13 -15 -11
-37 4 -48 6 -4 -3 -20 -20 -38 -16 -16 -23 -30 -16 -30 7 0 9 -5 5 -12 -10
-16 19 5 71 54 22 20 41 35 43 33 10 -10 -13 -48 -43 -68 -66 -45 -231 -217
-208 -217 5 0 38 29 73 65 35 36 69 65 74 65 5 0 1 -9 -8 -19 -10 -11 -15 -24
-12 -29 3 -5 -4 -22 -15 -36 -31 -40 -19 -40 26 0 63 54 84 44 40 -20 -20 -30
-22 -35 -6 -27 10 6 21 7 25 3 4 -3 4 2 0 13 -7 17 -6 18 7 5 13 -11 13 -20 5
-42 -6 -15 -14 -28 -18 -28 -4 0 -8 -4 -8 -9 0 -5 26 8 57 29 32 21 61 36 65
34 5 -3 8 -1 8 4 0 5 6 9 13 10 39 5 54 9 67 17 13 8 13 7 1 -8 -20 -25 -8
-30 20 -9 36 28 69 44 69 33 0 -5 -20 -22 -45 -38 -53 -34 -64 -53 -30 -53 20
0 4 -20 -96 -121 -65 -66 -130 -135 -145 -154 -26 -35 -38 -81 -23 -91 11 -7
105 65 101 78 -1 5 2 7 8 3 5 -3 10 -1 10 6 0 7 3 10 6 6 3 -3 11 -2 18 3 6 5
27 22 46 38 70 56 137 99 210 135 97 47 183 80 175 67 -10 -15 15 -12 59 9 62
29 137 51 148 45 13 -8 -11 -24 -37 -24 -11 0 -40 -14 -65 -31 l-45 -31 35 6
c32 6 33 5 15 -7 -19 -13 -98 -58 -177 -102 -44 -24 -136 -94 -162 -124 -11
-12 12 -1 50 24 38 25 89 55 114 66 71 32 103 50 125 70 13 12 25 15 34 10 10
-7 0 -15 -34 -30 -27 -12 -45 -24 -42 -27 3 -4 -29 -24 -71 -46 -108 -56 -282
-191 -267 -207 3 -2 15 5 28 17 26 25 134 82 153 82 7 0 32 18 55 40 48 45 51
47 42 23 -4 -11 7 -5 29 15 19 18 37 30 40 27 3 -3 22 2 44 12 21 9 43 16 47
15 4 -1 21 5 38 14 18 9 28 11 24 4 -5 -7 0 -11 11 -10 11 1 28 2 39 1 16 -1
17 -3 5 -11 -8 -5 -11 -12 -7 -16 7 -7 -105 -84 -123 -84 -5 0 -15 -7 -23 -15
-8 -8 -28 -22 -45 -32 -57 -34 -147 -97 -182 -129 -19 -17 -50 -37 -67 -45
-34 -14 -44 -29 -20 -29 7 0 18 5 25 12 9 9 12 9 12 0 0 -6 -11 -19 -25 -28
-38 -25 -30 -33 30 -30 30 2 55 2 55 0 0 -2 -10 -8 -21 -15 -15 -8 -19 -8 -15
0 4 6 2 11 -4 11 -7 0 -10 -6 -7 -12 8 -24 135 -14 337 27 86 17 110 19 110 6
0 -8 -131 -59 -205 -81 -114 -32 -171 -48 -187 -49 -5 -1 -8 -10 -8 -21 0 -17
5 -19 31 -15 24 4 30 3 26 -8 -5 -12 4 -12 60 -1 36 8 70 17 77 20 6 3 2 -2
-9 -11 -11 -9 -31 -18 -45 -21 -14 -3 -36 -10 -50 -14 l-25 -8 25 -2 c14 -1
41 -3 60 -5 19 -1 42 -5 50 -8 8 -3 49 -8 90 -12 41 -3 84 -12 95 -19 11 -7
54 -18 95 -25 41 -7 120 -21 175 -32 55 -10 152 -26 215 -34 63 -8 134 -19
158 -25 77 -18 202 -5 202 21 0 6 4 8 9 4 5 -3 22 6 37 20 25 24 27 33 13 84
-3 11 16 20 66 33 70 19 70 19 130 -3 111 -41 174 -88 211 -161 24 -48 33
-128 14 -128 -12 0 -9 -22 5 -32 6 -4 -5 -12 -22 -19 -18 -6 -33 -15 -33 -20
0 -5 -16 -9 -35 -9 -20 0 -35 -5 -35 -12 0 -6 -3 -8 -7 -5 -3 4 -13 1 -21 -6
-13 -9 -14 -9 -8 1 8 14 5 15 -18 6 -9 -3 -13 -11 -9 -18 4 -6 -1 -5 -10 3
-15 12 -17 11 -17 -3 0 -15 11 -20 38 -17 22 3 12 -14 -23 -38 -30 -20 -43
-23 -102 -18 -38 3 -124 15 -193 26 -69 12 -141 24 -160 27 -49 8 -170 31
-198 37 -33 9 -131 11 -138 4 -11 -11 8 -29 27 -24 11 3 19 2 19 -2 0 -4 12
-8 28 -9 15 -1 29 -7 30 -12 6 -16 58 -40 87 -40 14 0 25 -5 25 -11 0 -5 -4
-7 -10 -4 -5 3 -10 4 -10 0 0 -3 11 -10 25 -15 16 -6 25 -17 25 -32 1 -20 2
-21 13 -7 14 17 59 11 63 -9 1 -7 0 -8 -3 -2 -2 5 -9 8 -14 4 -13 -8 -11 -20
4 -22 16 -1 38 -7 60 -17 9 -4 29 -5 42 -3 14 3 25 2 25 -2 0 -14 -54 -27 -95
-23 -40 5 -40 5 -17 -12 23 -17 51 -16 95 0 10 5 17 2 17 -5 0 -7 -8 -19 -17
-26 -12 -9 -14 -13 -5 -14 7 0 11 -4 8 -8 -2 -4 5 -8 17 -7 12 0 22 -2 22 -5
2 -13 43 -53 65 -62 l25 -10 -23 -9 c-36 -14 -17 -27 33 -23 27 3 45 0 45 -6
0 -6 -6 -10 -12 -9 -29 3 -44 -3 -62 -28 -11 -14 -15 -24 -9 -20 5 3 17 -2 25
-13 17 -19 56 -17 69 3 4 5 8 -2 11 -16 4 -18 1 -24 -9 -20 -9 4 -11 0 -7 -11
3 -9 12 -16 19 -16 18 0 26 -25 12 -40 -9 -10 -8 -12 6 -7 9 4 17 3 17 -2 0
-4 28 -2 62 5 40 8 66 10 72 4 7 -7 0 -10 -17 -10 -32 0 -36 -16 -6 -25 11 -4
18 -9 15 -12 -3 -3 -17 2 -31 11 -37 24 -31 4 7 -24 l33 -24 -25 -6 c-21 -6
-18 -7 18 -11 23 -3 42 -1 42 3 0 5 -4 8 -9 8 -16 0 -19 38 -3 45 19 7 30 -4
14 -14 -10 -6 -5 -15 18 -35 17 -14 35 -26 38 -26 13 0 7 -73 -6 -76 -7 -1 -8
0 -2 3 16 7 12 23 -4 17 -18 -7 -28 -32 -20 -46 4 -6 10 -5 15 3 7 11 9 11 9
-1 0 -13 1 -13 10 0 12 20 21 8 23 -30 2 -26 13 -42 55 -78 28 -24 52 -40 52
-34 0 6 -17 24 -37 41 -21 17 -31 31 -23 31 17 -1 103 -101 106 -124 2 -17 40
-56 54 -56 14 0 12 -17 -2 -24 -9 -3 -8 -9 6 -20 10 -9 16 -22 13 -31 -5 -11
0 -15 18 -15 14 0 24 -4 22 -9 -1 -5 7 -17 18 -25 l20 -16 -20 6 c-11 4 -26
14 -34 23 -12 15 -13 14 -8 -2 10 -28 -21 -33 -47 -8 -15 14 -25 18 -28 11 -2
-8 -11 -8 -28 -2 -14 5 -29 10 -34 10 -5 0 -13 6 -17 14 -5 7 -9 8 -9 2 0 -6
-12 -10 -27 -8 l-28 3 30 -25 c17 -13 36 -29 43 -35 16 -13 16 3 0 20 -11 10
-10 11 5 6 9 -4 17 -13 17 -21 0 -8 6 -11 15 -8 8 4 15 1 15 -5 0 -6 -4 -11
-10 -11 -19 0 -10 -18 11 -23 12 -3 18 -10 14 -16 -3 -6 0 -9 8 -5 8 3 18 1
22 -5 3 -6 1 -11 -6 -11 -22 0 7 -22 33 -25 38 -4 39 -5 34 -14 -3 -5 6 -16
20 -26 14 -9 23 -19 20 -23 -4 -3 -20 7 -36 23 -17 16 -30 24 -30 18 0 -6 7
-16 15 -23 8 -7 15 -17 15 -23 0 -5 -9 -2 -20 8 -11 10 -22 16 -25 13 -3 -3 6
-13 21 -22 14 -10 23 -20 20 -24 -4 -3 6 -19 21 -34 23 -24 24 -28 8 -22 -14
6 -7 -7 22 -41 45 -53 49 -66 11 -41 -30 19 -44 10 -20 -13 12 -11 13 -13 2
-7 -8 5 -3 -3 12 -17 15 -14 24 -28 20 -31 -3 -4 2 -4 12 0 14 5 17 4 12 -4
-4 -7 -2 -12 4 -12 6 0 8 -4 5 -10 -3 -5 1 -10 9 -10 8 0 18 -5 22 -12 4 -7 3
-8 -4 -4 -21 13 16 -46 57 -90 23 -25 41 -52 41 -60 0 -12 6 -15 21 -11 12 3
18 3 15 0 -3 -4 -1 -12 6 -20 9 -11 7 -12 -8 -7 -18 5 -18 4 1 -11 12 -9 29
-14 42 -10 23 5 40 -9 23 -20 -5 -3 -10 -1 -10 6 0 10 -3 10 -11 2 -14 -14 -2
-34 18 -31 8 2 20 -5 27 -15 6 -11 26 -35 44 -55 31 -34 142 -193 151 -217 2
-5 17 -25 32 -43 16 -18 29 -40 29 -49 0 -8 11 -45 24 -82 13 -36 26 -80 29
-98 l6 -31 -30 15 c-17 8 -33 21 -36 29 -3 8 -9 11 -14 8 -5 -3 -6 1 -4 9 3 7
-4 22 -15 32 l-22 20 12 -30 c7 -17 17 -40 23 -52 7 -16 7 -34 -2 -62 -6 -22
-11 -43 -10 -48 4 -21 -3 -22 -31 -8 -28 15 -30 14 -30 -4 0 -11 -11 -31 -23
-45 l-24 -26 -13 25 c-18 33 -34 32 -25 -2 6 -27 6 -27 -14 -9 -12 11 -21 27
-21 37 0 10 -4 21 -10 24 -6 3 -7 -1 -4 -9 11 -28 -5 -17 -21 14 -9 17 -11 30
-6 30 6 0 -1 16 -14 36 -14 20 -25 41 -25 47 0 5 -15 23 -33 41 -18 17 -39 40
-47 51 -14 19 -14 19 3 6 10 -8 28 -16 39 -16 19 -2 19 -1 -3 17 -13 11 -18
17 -11 13 18 -9 14 14 -10 65 -12 25 -20 48 -20 53 1 4 -3 7 -8 7 -6 0 -10 6
-10 14 0 21 -33 75 -49 81 -10 4 -9 0 3 -14 10 -11 20 -35 21 -53 2 -18 4 -35
5 -38 1 -3 2 -9 1 -13 -1 -5 3 -6 9 -2 5 3 10 2 10 -3 0 -4 9 -18 20 -30 12
-12 16 -22 9 -22 -9 0 -9 -3 0 -14 9 -11 7 -15 -8 -19 -20 -5 -71 38 -71 59 0
6 -9 19 -20 29 -12 10 -18 25 -16 32 3 8 -1 16 -9 19 -8 4 -13 10 -10 14 3 4
-12 19 -33 33 -33 21 -38 22 -38 7 0 -11 6 -16 15 -12 10 4 12 1 6 -8 -5 -9
-4 -11 4 -6 8 5 10 1 6 -16 -3 -16 3 -32 21 -53 14 -16 23 -23 19 -15 -7 13
-6 13 8 0 9 -8 18 -31 20 -50 5 -45 22 -77 59 -108 16 -13 26 -27 23 -30 -3
-3 2 -16 10 -29 14 -21 14 -23 -2 -24 -12 -1 -9 -3 7 -8 16 -4 26 -15 28 -30
3 -16 0 -21 -8 -16 -7 4 -4 -4 5 -19 9 -14 22 -23 27 -20 7 5 7 1 1 -11 -8
-14 -4 -28 19 -61 16 -24 33 -46 39 -49 5 -4 6 -11 3 -17 -4 -7 -2 -8 4 -4 7
4 22 -10 37 -34 36 -57 44 -84 11 -37 -14 21 -26 43 -26 49 0 6 -3 8 -7 5 -8
-8 30 -79 61 -115 17 -19 34 -74 19 -58 -3 2 -5 7 -4 10 0 9 -53 66 -63 66
-13 0 -32 27 -62 87 -14 29 -32 57 -40 64 -11 9 -12 15 -3 26 9 11 9 12 -4 8
-10 -4 -17 1 -22 14 -3 12 -11 21 -17 21 -6 0 -6 -6 2 -15 7 -8 8 -15 3 -15
-5 0 -22 23 -38 50 -16 28 -34 50 -40 50 -6 0 -21 10 -32 23 -23 25 -86 157
-75 157 4 0 0 5 -8 10 -13 9 -13 11 0 20 11 7 11 10 2 10 -7 0 -11 4 -7 9 3 5
1 12 -4 15 -4 3 -11 19 -14 36 -8 39 -38 42 -31 3 4 -22 3 -24 -10 -14 -12 10
-16 8 -22 -11 -4 -13 -7 -31 -5 -40 1 -12 -3 -16 -13 -12 -13 5 -14 1 -6 -27
11 -36 26 -56 36 -46 4 4 -1 15 -10 26 -10 11 -13 22 -8 25 10 6 35 -44 31
-60 -4 -14 12 -58 24 -66 7 -4 6 -12 -4 -24 -13 -16 -12 -17 5 -11 13 5 17 3
13 -7 -4 -9 2 -17 14 -21 10 -4 17 -10 14 -15 -10 -16 6 -39 23 -33 14 4 14 3
3 -5 -9 -7 -11 -16 -6 -28 5 -11 9 -21 9 -24 5 -25 34 -78 48 -88 10 -8 17
-19 16 -25 -1 -7 4 -23 11 -36 9 -17 10 -21 1 -16 -8 5 -11 1 -8 -11 2 -11 8
-18 14 -17 5 1 9 -10 9 -23 0 -25 0 -25 -16 -5 -9 11 -18 18 -20 16 -2 -2 -5
8 -5 21 -1 13 3 24 9 24 12 0 0 14 -14 16 -5 1 -12 2 -15 3 -3 0 2 8 10 17 19
18 12 36 -10 27 -8 -3 -14 -2 -13 3 5 23 -15 63 -34 69 -15 4 -18 8 -9 12 10
4 7 9 -8 20 -18 12 -19 17 -9 25 11 6 9 8 -6 6 -16 -2 -19 2 -17 24 3 25 -34
98 -57 113 -15 9 21 -57 38 -71 9 -7 11 -18 6 -30 -13 -31 -13 -56 1 -84 8
-14 12 -36 9 -48 -3 -16 0 -19 12 -15 10 4 14 2 10 -4 -4 -6 -1 -17 6 -25 8
-7 12 -18 10 -25 -2 -6 4 -24 14 -40 10 -15 12 -24 6 -20 -9 6 -11 3 -7 -7 3
-9 11 -13 17 -9 6 4 8 0 4 -10 -3 -9 -2 -19 4 -22 5 -4 7 -11 3 -16 -3 -6 2
-26 11 -45 9 -19 18 -44 20 -55 6 -30 26 -53 35 -39 5 8 9 6 13 -5 4 -9 3 -13
-3 -10 -6 3 -10 -1 -10 -9 0 -9 7 -16 15 -16 8 0 15 -4 15 -10 0 -5 -5 -10
-11 -10 -7 0 -1 -11 13 -23 14 -13 29 -35 33 -48 7 -22 29 -71 136 -294 24
-49 42 -93 41 -97 -1 -5 2 -8 7 -8 5 0 14 -15 21 -32 20 -50 79 -179 101 -219
29 -55 23 -57 -21 -9 -22 24 -40 48 -40 54 0 7 -6 20 -14 31 -7 11 -15 25 -16
30 -2 6 -9 24 -17 42 -7 18 -13 37 -13 43 0 5 -4 10 -9 10 -5 0 -11 13 -14 28
-3 16 -20 43 -36 61 -17 18 -31 39 -31 46 0 8 -11 40 -24 72 -13 32 -36 91
-51 131 -15 39 -31 72 -36 72 -5 0 -11 11 -15 25 -3 14 -10 25 -15 25 -5 0 -9
4 -9 9 0 6 -13 29 -29 53 -16 24 -31 53 -35 65 -4 11 -13 24 -21 27 -8 3 -15
10 -15 16 0 6 5 8 10 5 16 -10 12 11 -5 25 -13 11 -14 10 -9 -4 3 -9 1 -16 -5
-16 -6 0 -11 4 -11 9 0 5 -23 44 -51 86 -55 83 -70 113 -51 101 7 -4 12 -2 12
4 0 7 -7 10 -15 6 -8 -3 -16 0 -17 7 0 7 -2 17 -2 22 -1 6 -7 18 -12 29 -10
16 -12 16 -17 2 -4 -9 -1 -16 5 -16 6 0 8 -3 5 -6 -4 -4 0 -19 7 -33 8 -14 20
-41 26 -58 7 -18 16 -33 20 -33 7 0 8 -2 12 -70 3 -38 7 -47 31 -58 32 -16 35
-28 7 -37 -16 -5 -19 -12 -14 -28 10 -33 52 -98 85 -132 29 -30 83 -90 106
-119 10 -11 9 -15 -4 -20 -18 -7 -35 12 -28 32 3 7 1 11 -4 8 -4 -3 -17 12
-29 32 -19 35 -62 82 -62 69 0 -3 14 -35 30 -72 35 -78 34 -75 15 -75 -8 0
-15 -5 -15 -12 0 -23 -19 8 -89 146 -39 77 -75 144 -81 150 -15 15 -13 -7 4
-41 42 -85 66 -145 61 -153 -3 -5 -1 -11 5 -15 6 -4 7 -12 3 -18 -4 -7 -6 -23
-4 -36 2 -15 -1 -21 -8 -16 -6 3 -9 10 -6 15 3 5 1 11 -5 15 -5 3 -10 15 -10
25 0 11 -16 50 -36 87 -21 38 -45 84 -56 103 -10 19 -16 26 -14 15 3 -11 7
-33 10 -49 3 -15 12 -39 22 -53 9 -14 11 -22 5 -19 -6 4 -11 0 -11 -9 0 -9 4
-14 9 -11 9 6 21 -16 21 -38 0 -6 -10 -13 -22 -13 -17 -2 -19 0 -8 7 12 8 12
10 -3 16 -9 3 -17 14 -17 23 0 24 -16 44 -29 36 -8 -4 -5 -17 10 -41 12 -19
19 -38 15 -41 -3 -3 -9 3 -13 13 -11 30 -45 85 -49 81 -5 -4 31 -99 52 -139
16 -29 19 -51 4 -28 -7 12 -12 12 -22 2 -9 -9 -9 -12 0 -12 7 0 12 -6 12 -14
0 -8 7 -13 16 -12 9 0 19 -5 21 -12 3 -8 -1 -10 -11 -6 -13 5 -15 2 -9 -12 7
-18 6 -18 -20 -1 -26 17 -34 13 -19 -9 4 -6 18 -10 32 -10 23 1 25 -1 16 -21
-9 -17 -14 -19 -26 -10 -13 10 -13 10 -2 -5 8 -9 20 -14 28 -11 16 6 19 -14 5
-35 -13 -21 -44 -10 -53 18 -4 15 -6 3 -4 -34 3 -44 10 -64 26 -80 l22 -21
-17 28 c-13 20 -15 30 -6 40 6 8 8 17 4 20 -3 4 1 7 10 7 9 0 20 1 24 3 4 1 8
-14 11 -33 2 -19 7 -39 12 -45 4 -5 7 -26 6 -45 -1 -19 2 -46 7 -60 7 -20 4
-28 -13 -42 -12 -10 -17 -18 -11 -18 7 0 9 -5 5 -12 -4 -7 -3 -8 4 -4 7 4 12
3 12 -3 0 -5 -5 -13 -11 -17 -6 -3 -8 -16 -4 -28 3 -11 7 -30 9 -41 2 -11 6
-31 9 -45 4 -14 4 -19 1 -12 -3 6 -9 12 -14 12 -13 0 -6 -34 11 -53 16 -17 15
-77 -1 -77 -5 0 -6 9 -3 20 4 14 1 20 -7 18 -8 -2 -21 17 -31 45 -12 34 -14
47 -5 44 8 -3 11 4 8 23 -3 21 -8 27 -20 23 -11 -5 -13 -3 -7 7 6 9 4 12 -6 8
-12 -5 -15 2 -12 32 2 24 -3 42 -12 50 -10 8 -15 9 -15 2 0 -6 5 -14 10 -17 6
-3 10 -11 10 -17 0 -7 -4 -7 -13 1 -8 6 -16 9 -18 7 -2 -2 -5 7 -6 21 0 14 -5
28 -11 32 -12 7 -26 49 -27 76 0 11 -6 19 -12 18 -7 -2 -19 10 -27 25 -8 16
-23 35 -32 43 -14 11 -13 6 5 -23 12 -21 19 -38 15 -38 -4 0 3 -11 15 -24 12
-13 24 -30 25 -37 6 -30 28 -102 36 -118 5 -9 17 -44 27 -78 10 -33 22 -59 27
-55 5 3 5 -1 0 -9 -11 -18 -6 -46 12 -74 13 -20 10 -35 -7 -35 -3 0 -17 26
-29 57 -37 99 -84 197 -107 226 -13 16 -20 35 -17 45 5 14 4 14 -4 3 -11 -16
1 -49 22 -63 7 -5 7 -8 -2 -8 -7 0 -10 -5 -7 -10 4 -6 10 -8 15 -5 4 3 6 -4 3
-15 -3 -11 0 -26 6 -33 6 -8 8 -16 5 -20 -3 -3 6 -29 20 -58 15 -28 24 -54 21
-57 -3 -3 6 -19 19 -37 l24 -31 -22 -19 c-24 -22 -46 -26 -46 -10 0 6 4 10 9
10 5 0 13 3 17 7 4 5 1 8 -8 8 -8 0 -15 6 -15 13 0 21 -53 131 -59 124 -4 -4
0 -17 9 -31 18 -27 13 -38 -11 -28 -15 5 -15 3 -4 -11 8 -9 20 -13 29 -10 13
5 15 2 9 -18 -14 -45 -5 -102 20 -132 16 -18 16 -19 2 -8 -13 10 -18 10 -18 2
0 -7 -4 -10 -8 -7 -5 3 -9 -1 -9 -9 0 -12 3 -12 15 -3 12 11 14 8 8 -19 -6
-28 -3 -37 23 -62 34 -34 37 -41 18 -41 -8 0 -19 12 -25 26 -7 14 -17 22 -22
19 -6 -4 -7 1 -3 12 4 13 3 15 -6 7 -6 -6 -13 -25 -14 -42 -1 -18 -6 -32 -10
-32 -4 0 -3 -9 3 -20 6 -11 7 -20 1 -20 -5 0 -12 8 -15 17 -6 15 -8 15 -17 3
-8 -11 -9 -10 -4 8 7 26 -3 65 -15 57 -4 -3 -6 -15 -2 -28 5 -19 4 -20 -11 -8
-14 11 -18 11 -24 -5 -4 -10 -2 -19 5 -22 7 -2 12 -11 12 -20 0 -8 7 -24 17
-34 9 -10 11 -18 5 -18 -6 0 -18 10 -28 23 l-16 22 6 -27 c4 -16 1 -30 -6 -34
-8 -5 -9 -2 -5 9 3 10 2 17 -4 17 -5 0 -7 11 -5 25 3 15 0 25 -7 26 -9 0 -8 2
1 6 6 2 9 9 6 14 -3 6 -12 5 -22 -3 -13 -11 -14 -11 -7 2 13 21 13 50 1 50 -6
0 -3 5 7 11 21 13 22 27 0 51 -15 17 -15 18 6 18 12 0 20 -4 17 -9 -3 -5 1
-11 9 -15 17 -6 21 9 4 19 -6 4 -8 13 -5 21 6 16 -5 18 -22 4 -9 -7 -9 -7 -2
2 15 18 12 31 -6 24 -8 -3 -12 -2 -9 4 3 6 -1 10 -9 10 -11 0 -16 9 -16 29 0
24 3 28 20 24 24 -6 29 24 5 33 -8 4 -15 17 -15 30 0 13 -14 38 -30 56 -19 21
-28 26 -23 14 4 -13 3 -17 -4 -13 -7 5 -9 0 -6 -13 3 -11 9 -22 13 -25 5 -3 6
5 3 17 -3 13 -2 19 3 15 4 -4 8 -25 9 -45 0 -24 4 -36 12 -35 7 2 10 -4 6 -12
-7 -19 -33 -1 -33 23 0 8 -3 13 -6 9 -4 -3 3 -26 15 -51 11 -25 18 -51 15 -59
-3 -8 2 -20 11 -27 18 -15 20 -34 3 -24 -10 6 -10 4 -2 -7 16 -20 0 -61 -21
-53 -8 3 -15 14 -16 23 0 10 -2 12 -6 3 -3 -7 3 -24 12 -39 17 -25 17 -26 0
-19 -14 5 -16 3 -9 -11 4 -10 8 -30 8 -45 1 -16 5 -28 10 -28 4 0 6 -7 2 -15
-3 -8 0 -15 7 -15 8 0 8 -3 -2 -9 -9 -6 -10 -11 -2 -15 16 -10 13 -29 -3 -23
-10 4 -13 1 -10 -7 3 -8 0 -17 -6 -21 -15 -9 8 -37 24 -28 6 3 8 2 3 -2 -10
-11 -48 -14 -41 -4 3 5 -4 16 -15 26 -11 9 -18 19 -17 22 2 3 -2 11 -8 17 -10
9 -12 4 -12 -22 1 -23 5 -33 14 -29 8 3 7 -4 -4 -20 -10 -15 -12 -25 -5 -25 6
0 11 -7 11 -16 0 -9 -5 -13 -12 -9 -7 4 -6 1 2 -7 16 -14 20 -84 7 -105 -5 -8
-3 -13 3 -13 6 0 9 -4 6 -8 -3 -5 2 -31 10 -58 8 -27 13 -56 11 -64 -2 -8 -7
-2 -12 15 -13 52 -44 140 -45 130 -1 -5 -5 -2 -8 7 -6 14 -9 10 -18 -17 -6
-19 -7 -32 -2 -28 5 3 8 -4 6 -14 -2 -11 3 -27 11 -36 9 -11 10 -17 2 -17 -6
0 -11 3 -11 8 0 4 -11 20 -25 36 -14 16 -25 35 -25 43 0 7 -4 13 -10 13 -5 0
-10 -13 -10 -30 0 -16 5 -30 10 -30 6 0 10 -5 10 -11 0 -6 -6 -9 -13 -6 -13 5
-11 -28 3 -98 1 -5 2 -17 1 -25 -2 -20 -20 0 -24 28 -4 24 -27 54 -27 35 0 -6
6 -13 12 -15 7 -3 2 -7 -11 -11 -16 -4 -21 -2 -17 8 2 7 -1 21 -9 31 -7 10
-10 25 -7 33 3 9 1 12 -6 7 -7 -4 -12 -14 -12 -21 0 -9 -6 -12 -16 -8 -11 4
-15 0 -14 -13 6 -53 -6 -72 -15 -24 -6 31 -15 38 -15 11 0 -27 17 -61 30 -61
6 0 10 6 10 14 0 8 4 17 9 20 10 7 9 -20 -1 -30 -4 -3 -5 -11 -4 -17 2 -7 1
-9 -1 -4 -8 14 -23 7 -23 -10 0 -14 -2 -15 -9 -5 -4 7 -17 14 -29 15 -16 1
-18 4 -10 14 8 10 7 12 -5 7 -8 -3 -17 0 -20 8 -2 7 -2 3 0 -10 5 -32 -2 -27
-22 15 -18 37 -18 37 -27 13 -7 -19 -11 -21 -18 -11 -4 8 -6 21 -3 30 3 11 1
11 -7 -2 -7 -10 -9 -30 -6 -45 6 -26 6 -26 -9 -7 -15 19 -16 19 -13 -4 2 -15
-5 -28 -22 -39 l-25 -17 18 27 c9 15 17 35 17 45 0 15 -3 14 -16 -5 -8 -12
-20 -20 -25 -17 -5 4 -9 1 -9 -6 0 -9 -3 -9 -14 0 -12 10 -17 8 -27 -11 -10
-19 -10 -21 2 -12 27 21 45 13 41 -19 -3 -18 -7 -24 -12 -17 -6 9 -9 9 -15 0
-5 -8 -19 -10 -42 -5 -22 4 -33 3 -29 -4 4 -5 2 -12 -3 -16 -13 -8 -2 -35 12
-32 7 1 17 10 23 21 10 17 12 17 17 2 5 -12 3 -15 -5 -10 -7 5 -9 2 -5 -9 4
-11 1 -15 -13 -12 -11 2 -23 -1 -26 -7 -4 -7 -14 -2 -26 13 -11 13 -17 19 -14
12 4 -6 2 -14 -4 -18 -6 -3 -10 4 -10 17 l0 22 -16 -22 c-13 -18 -19 -21 -30
-11 -8 6 -14 16 -14 22 0 6 7 2 15 -9 13 -17 14 -17 15 -2 0 28 -22 33 -42 9
-18 -23 -16 -62 5 -88 6 -9 6 -13 -1 -13 -6 0 -12 6 -15 13 -6 16 -18 4 -20
-21 0 -11 -4 -19 -8 -16 -4 2 -9 -1 -11 -7 -2 -6 -15 9 -28 34 -16 30 -28 43
-34 37 -7 -7 -6 -14 2 -22 7 -7 12 -17 12 -22 0 -6 -5 -4 -10 4 -8 12 -10 11
-10 -5 0 -11 7 -30 15 -41 8 -12 12 -24 9 -26 -2 -3 2 -11 11 -18 8 -7 15 -17
15 -23 0 -6 -7 -1 -16 11 -20 29 -37 28 -30 0 3 -13 3 -17 0 -10 -3 6 -10 10
-15 6 -13 -8 -11 4 7 30 15 24 14 28 -19 39 -10 4 -16 3 -13 -2 3 -5 -4 -11
-15 -14 -20 -5 -19 -9 20 -49 22 -24 40 -47 40 -53 0 -5 -3 -4 -6 3 -2 6 -11
12 -19 12 -8 0 -17 7 -20 15 -8 20 -33 19 -58 -2 -16 -14 -18 -14 -8 -2 10 13
8 18 -14 28 -14 6 -23 7 -20 2 4 -5 -1 -16 -9 -24 -18 -18 -20 -37 -4 -37 8 0
8 -4 1 -12 -5 -7 -12 -22 -15 -33 -4 -19 -5 -18 -6 2 -1 28 -16 37 -31 18 -10
-12 -10 -19 1 -32 7 -10 9 -15 5 -11 -5 4 -15 0 -23 -10 -10 -12 -16 -14 -19
-4 -3 6 -10 10 -15 6 -5 -3 -9 0 -9 6 0 7 6 10 14 7 22 -9 26 3 8 23 -20 21
-46 30 -47 15 -1 -16 -15 -35 -26 -35 -6 0 -6 7 1 20 9 17 8 19 -7 13 -14 -5
-16 -4 -7 8 8 11 6 18 -8 32 -16 15 -18 15 -18 1 0 -11 -6 -15 -18 -12 -15 4
-18 0 -16 -18 1 -13 -2 -22 -6 -19 -5 3 -11 1 -14 -3 -3 -5 -17 -7 -31 -4 -14
2 -25 1 -24 -4 5 -21 -14 -44 -35 -40 -11 2 -15 1 -8 -1 15 -6 16 -20 0 -29
-7 -4 -8 -3 -4 4 5 8 0 12 -13 12 -11 0 -23 -5 -26 -10 -4 -6 -10 -8 -14 -5
-5 2 -7 -7 -5 -20 1 -14 -2 -25 -7 -25 -5 0 -9 5 -9 10 0 6 -7 10 -16 10 -8 0
-12 -4 -9 -10 3 -5 0 -10 -7 -10 -10 0 -9 -3 2 -9 8 -6 18 -7 24 -4 5 4 7 -1
3 -10 -4 -10 1 -21 11 -27 14 -9 11 -10 -13 -5 -16 4 -32 10 -35 14 -3 4 -12
6 -20 5 -8 0 -25 -2 -37 -2 -14 -1 -23 -9 -23 -18 0 -8 4 -13 9 -9 5 3 12 1
15 -4 3 -5 -1 -11 -9 -15 -8 -3 -15 -1 -15 5 0 5 -12 7 -27 4 -26 -6 -26 -5
-10 8 9 8 17 17 17 20 0 5 -51 2 -57 -4 -2 -1 -7 -2 -13 -3 -5 0 -18 -9 -30
-18 -11 -10 -20 -14 -20 -9 0 5 12 16 26 26 19 12 23 19 14 25 -9 6 -6 10 10
15 22 7 22 8 5 18 -17 9 -17 10 5 22 19 10 20 13 6 18 -10 4 -15 3 -11 -3 3
-6 -3 -10 -15 -10 -11 0 -23 7 -26 15 -4 8 -13 15 -21 15 -8 0 -11 5 -8 10 4
6 11 7 17 4 6 -4 8 -2 5 4 -8 11 -46 4 -63 -12 -10 -11 -14 -19 -14 -34 0 -4
-14 -8 -32 -9 -29 -1 -30 0 -14 12 10 8 24 11 32 8 9 -3 12 0 9 9 -5 13 -11
13 -40 -1 -19 -9 -34 -22 -35 -28 0 -7 -6 -13 -14 -13 -8 0 -18 -5 -22 -12 -5
-7 -2 -8 7 -3 8 5 11 4 6 0 -9 -11 -77 -35 -97 -34 -9 0 -5 5 10 13 14 8 28
12 32 10 5 -3 8 0 8 6 0 8 -7 9 -17 5 -10 -4 -36 -9 -58 -10 -22 -2 -53 -8
-68 -14 -16 -6 -42 -11 -58 -11 -16 0 -28 -3 -27 -7 4 -10 -52 -83 -62 -83 -4
0 -20 12 -35 28 -15 15 -30 27 -34 28 -30 4 -60 18 -54 27 3 5 1 7 -5 4 -17
-11 -2 -47 29 -70 16 -11 29 -27 29 -36 0 -8 3 -11 6 -8 7 7 76 -43 107 -77
18 -20 23 -41 8 -31 -5 3 -13 0 -16 -6 -4 -6 -18 -8 -31 -5 -13 4 -24 3 -24
-2 0 -4 -26 -9 -57 -10 -31 -1 -70 -4 -86 -8 -27 -5 -27 -7 -10 -20 16 -14 15
-15 -19 -12 -46 5 -38 -4 20 -21 54 -15 46 -35 -12 -27 -22 3 -68 8 -101 11
l-60 5 50 -20 c28 -11 51 -16 53 -12 4 12 84 4 97 -9 7 -7 4 -14 -8 -24 -10
-7 -16 -19 -15 -26 2 -8 -11 -15 -33 -19 -20 -4 -49 -16 -64 -28 l-27 -21 46
-22 c25 -13 48 -29 51 -37 8 -21 -54 -9 -119 22 -28 14 -85 41 -128 60 -42 20
-91 48 -110 63 -30 25 -30 23 6 -15 22 -23 37 -44 34 -48 -12 -12 -48 8 -63
34 -8 15 -21 35 -29 46 -19 23 -66 30 -66 10 0 -16 -23 -18 -50 -4 -10 6 -49
12 -87 15 -37 3 -79 7 -93 10 -14 2 -36 7 -50 10 -14 2 -47 7 -75 10 -88 9
-127 15 -144 24 -9 5 -28 7 -43 6 -16 -2 -29 2 -32 10 -3 8 -14 12 -26 10 -12
-2 -29 4 -40 15 -11 11 -31 20 -45 20 -14 0 -25 4 -25 9 0 5 -10 13 -22 17
-31 9 -48 35 -41 59 5 17 4 18 -11 6 -14 -12 -16 -9 -16 31 0 36 -5 48 -31 71
-17 15 -37 27 -44 27 -7 0 -18 7 -25 15 -10 12 -16 13 -26 4 -10 -8 -14 -8
-14 0 0 6 -7 11 -15 11 -8 0 -15 7 -15 15 0 22 -36 39 -44 20 -8 -22 -34 -7
-38 23 -2 14 -8 27 -14 29 -15 5 -25 -35 -10 -40 6 -2 8 -8 4 -11 -7 -9 -48
29 -48 44 0 6 -4 10 -10 10 -5 0 -8 -16 -6 -35 1 -24 -2 -35 -11 -35 -7 0 -13
4 -13 9 0 5 -6 16 -12 23 -27 28 -66 85 -83 121 -17 36 -35 49 -35 25 0 -9 -4
-8 -10 2 -5 8 -10 11 -10 7 0 -4 7 -19 16 -32 9 -13 13 -29 10 -34 -4 -5 -2
-12 4 -16 5 -3 10 -13 10 -22 0 -11 -5 -9 -20 8 l-20 24 12 -30 c6 -16 20 -40
31 -52 11 -12 17 -28 14 -35 -2 -8 -12 0 -23 21 -16 29 -72 100 -157 202 -12
15 -33 48 -47 75 -14 27 -31 53 -37 57 -7 4 -13 15 -13 22 0 8 -4 15 -9 15
-16 0 -33 -30 -28 -50 6 -24 -2 -26 -18 -3 -11 14 -12 12 -10 -18 3 -36 51
-186 65 -204 5 -5 11 -28 15 -50 6 -33 -3 -21 -47 65 -30 58 -61 123 -68 145
-7 22 -20 51 -29 65 -10 14 -28 46 -42 72 -13 27 -27 48 -31 48 -5 0 -8 8 -8
17 0 9 -8 26 -18 37 -10 12 -25 37 -32 56 -8 19 -24 46 -37 59 -12 13 -20 27
-18 31 9 14 -14 62 -26 55 -6 -4 -13 2 -16 13 -3 14 -11 18 -24 15 -10 -3 -19
-9 -19 -14 0 -5 -5 -9 -11 -9 -6 0 -9 7 -5 15 3 8 2 14 -2 14 -25 -4 -42 3
-42 17 0 14 3 14 15 4 10 -9 15 -9 15 -1 0 6 -4 12 -10 12 -5 1 -15 2 -22 3
-6 0 -15 15 -20 32 -4 17 -15 37 -23 44 -8 7 -15 19 -15 27 0 9 -6 12 -18 9
-13 -4 -18 0 -19 14 -1 11 2 22 6 25 5 2 6 16 3 30 -4 24 -5 24 -18 8 -13 -17
-14 -17 -7 1 4 12 2 17 -3 13 -6 -3 -11 10 -12 31 -4 48 -30 91 -44 71 -7 -10
-8 -9 -3 6 4 11 10 40 12 65 2 25 5 50 7 57 3 6 -2 19 -9 30 -8 10 -15 14 -15
8 0 -5 -5 -3 -10 5 -9 13 -10 13 -10 0 0 -9 5 -21 11 -27 7 -7 6 -12 -4 -16
-14 -5 -15 2 -20 95 -1 14 -5 24 -9 21 -12 -7 -10 5 7 38 20 37 14 47 -23 41
-23 -3 -29 0 -27 15 0 10 4 24 8 30 5 7 4 21 -1 30 -11 21 -9 230 3 257 6 14
5 17 -4 11 -10 -5 -11 -2 -7 13 4 11 3 23 -2 26 -5 3 -6 28 -2 56 5 41 3 53
-9 60 -14 8 -13 9 3 10 15 0 17 3 9 11 -6 6 -9 17 -6 24 2 8 -1 23 -7 35 -7
13 -8 20 -2 16 6 -3 14 -1 18 5 4 8 3 9 -4 5 -7 -4 -12 -2 -12 5 0 9 -3 9 -14
0 -18 -15 -30 11 -13 28 8 8 7 11 -3 11 -11 0 -11 3 -2 12 15 15 15 26 0 25
-33 -1 -49 4 -43 13 3 6 -1 13 -10 16 -10 4 -14 13 -10 23 4 9 8 29 10 44 2
15 13 44 23 65 11 20 25 48 31 62 6 14 21 41 33 60 l22 35 -27 -24 c-29 -26
-36 -18 -12 13 8 11 13 29 10 40 -3 12 -2 15 1 9 3 -7 10 -13 15 -13 13 0 39
56 39 85 0 14 7 42 16 63 10 20 19 48 21 62 2 14 13 32 23 42 22 18 28 70 8
65 -8 -1 -13 10 -14 31 -1 18 -8 38 -17 45 -8 7 -17 21 -19 32 -2 11 -9 19
-16 18 -13 -3 -19 18 -27 96 -4 49 -1 62 29 117 19 34 32 64 29 67 -7 8 17 50
41 70 11 10 15 16 9 12 -14 -7 -16 -1 -7 33 5 19 9 20 22 10 13 -11 15 -9 10
15 -4 19 -1 26 8 25 16 -4 66 61 58 74 -3 5 1 17 9 26 17 19 117 215 113 220
-2 1 -18 -20 -36 -48 -17 -27 -36 -48 -40 -45 -5 3 -13 -10 -19 -28 -6 -19
-18 -34 -26 -34 -12 0 -11 6 4 31 10 17 31 54 47 81 15 28 43 67 61 88 18 20
33 43 33 50 0 15 113 191 129 202 6 3 18 20 27 37 15 28 15 30 0 25 -9 -4 -16
-2 -16 3 0 17 -27 0 -40 -25 -7 -13 -16 -22 -20 -20 -5 3 -10 -2 -14 -10 -3
-8 -11 -15 -17 -15 -7 0 -3 10 9 23 12 13 22 33 22 45 0 11 4 23 9 27 6 3 8
15 6 26 -2 11 4 34 14 50 10 17 17 39 14 49 -6 21 24 57 137 168 76 75 78 84
6 28 -43 -33 -149 -135 -128 -122 6 4 12 2 12 -4 0 -6 -8 -14 -17 -17 -10 -4
-22 -12 -28 -19 -5 -7 -22 -15 -38 -18 -34 -6 -28 7 25 53 42 37 113 131 98
131 -5 0 -7 7 -4 15 4 8 12 15 19 15 8 0 15 14 17 32 2 23 9 34 22 36 20 4 54
32 39 32 -4 0 3 7 15 16 12 8 26 13 31 9 5 -3 13 0 17 6 5 8 3 9 -7 4 -26 -15
-2 5 47 40 27 19 48 38 46 43 -2 4 5 8 15 10 30 5 63 24 57 34 -3 5 -27 6 -52
2 l-47 -7 19 21 c27 31 78 44 138 37 49 -5 51 -4 34 10 -11 8 -34 15 -50 15
-40 0 -100 22 -103 38 -2 7 2 12 7 12 6 0 10 -4 10 -9 0 -5 10 -7 22 -3 21 5
21 5 -3 15 -13 6 -32 10 -41 10 -10 0 -15 4 -12 8 3 5 0 9 -6 9 -26 0 -1 24
37 35 69 20 103 39 103 57 0 9 -6 19 -12 21 -7 3 -3 6 9 6 15 1 21 6 17 15 -7
17 22 47 40 40 7 -3 16 2 19 10 4 9 2 16 -4 16 -6 0 -7 4 -4 10 3 5 0 7 -8 4
-8 -3 -18 -1 -21 4 -3 5 31 17 75 27 71 17 79 20 63 32 -10 7 -26 13 -35 13
-10 0 -20 4 -23 9 -3 4 19 9 48 10 30 0 66 5 79 10 14 6 52 13 86 17 33 3 69
13 78 20 16 12 8 13 -57 8 -66 -5 -73 -4 -57 9 9 8 17 17 17 20 0 4 -8 4 -17
0 -14 -4 -14 -2 2 9 11 8 38 21 60 28 52 16 70 31 54 41 -7 4 -24 5 -38 3 -20
-3 -23 -2 -11 6 8 5 30 10 48 10 43 0 103 26 100 42 -2 7 6 13 19 13 11 0 25
3 29 8 4 4 16 7 26 7 10 0 18 4 18 8 0 9 83 65 121 82 20 9 18 10 -16 5 -58
-8 -146 -23 -175 -29 -55 -12 -77 -16 -114 -22 -22 -3 -50 -10 -63 -15 -13 -5
-23 -6 -23 -4 0 3 -15 -1 -32 -8 -41 -17 -120 -20 -178 -7 -25 5 -78 16 -118
25 -80 16 -115 31 -107 45 3 5 -4 18 -15 28 -21 19 -21 20 -2 75 10 31 23 62
29 69 6 7 14 25 18 40 13 49 69 103 142 133 37 16 105 46 150 67 92 43 96 44
112 24 9 -11 9 -15 -1 -19 -7 -2 13 -8 44 -12 32 -4 56 -11 53 -15 -3 -5 0
-12 6 -15 5 -4 8 -13 5 -21 -8 -20 18 -28 44 -14 12 6 24 9 27 6 3 -3 -6 -10
-21 -16 -22 -8 -103 -78 -94 -81 2 0 21 -3 43 -5 22 -3 44 -9 49 -15 14 -13
83 -12 92 2 3 6 16 8 28 5 11 -3 28 -1 36 4 11 7 8 10 -14 10 -23 0 -27 3 -18
12 10 10 53 19 90 19 45 -1 61 -5 56 -13 -4 -6 -20 -7 -36 -4 -18 3 -27 2 -23
-4 9 -14 29 -12 120 10 53 14 85 28 96 42 9 11 27 22 40 23 13 1 27 3 32 4 17
3 4 30 -39 81 l-47 55 62 -62 c65 -66 89 -77 98 -43 3 11 11 20 19 20 7 0 11
6 8 14 -4 9 2 12 18 10 13 -2 32 3 42 11 18 13 18 18 6 56 -8 23 -20 43 -27
46 -7 3 -13 19 -13 37 0 17 -3 41 -6 54 -6 21 -7 21 -20 5 -12 -16 -13 -14
-14 22 0 22 -3 65 -6 97 -4 33 -1 71 6 93 14 43 16 42 24 -9 4 -21 9 -42 12
-47 6 -11 24 -12 23 -1 -5 32 3 61 15 56 11 -4 16 14 21 91 4 53 10 93 13 90
4 -3 5 -23 3 -45 -2 -40 16 -87 43 -109 14 -12 16 -4 17 80 0 52 2 101 4 109
4 24 47 164 52 173 11 19 32 -32 33 -79 0 -38 4 -51 15 -51 8 0 16 6 19 14 3
7 11 13 17 13 9 0 10 -22 6 -80 -4 -61 -2 -82 9 -91 8 -6 14 -20 14 -30 0 -11
6 -19 14 -19 8 0 17 -15 20 -35 12 -65 21 -43 21 53 1 162 1 161 104 375 56
117 75 148 88 145 10 -2 28 7 41 19 13 13 29 23 36 23 7 0 23 9 36 20 40 34
53 23 18 -16 -33 -36 -45 -62 -47 -99 0 -20 0 -20 14 -1 14 19 15 19 15 -8 0
-16 -4 -25 -10 -21 -6 4 -10 3 -9 -2 1 -4 1 -10 0 -13 -1 -3 -3 -21 -5 -42 -2
-20 -10 -44 -19 -53 -10 -9 -17 -17 -17 -18 -1 -1 -3 -20 -6 -42 -9 -74 -14
-90 -25 -74 -5 7 -9 10 -9 6 0 -4 6 -18 14 -30 8 -12 18 -49 21 -82 4 -33 13
-77 20 -97 7 -21 9 -35 4 -32 -5 3 -9 0 -9 -5 0 -6 5 -11 10 -11 6 0 10 -8 10
-17 0 -10 8 -27 16 -38 16 -19 16 -19 12 11 -4 34 17 44 28 12 9 -30 20 -20
21 20 2 43 39 198 54 225 5 10 7 22 4 27 -4 6 1 13 9 16 9 3 16 14 16 23 0 14
-2 14 -10 1 -11 -17 -13 -10 -4 14 3 9 9 14 13 11 4 -2 18 18 32 45 13 26 27
46 31 44 3 -2 15 11 27 29 36 56 45 68 80 103 34 36 47 43 36 22 -4 -7 -1 -6
7 3 18 22 58 42 58 29 0 -5 6 -10 13 -10 15 1 67 46 67 59 0 5 4 13 10 16 6 4
7 -1 3 -11 -8 -20 8 -13 44 19 13 11 31 21 40 23 33 4 63 16 63 25 0 5 12 9
26 9 22 0 24 -3 15 -14z m39 -165 c0 -5 -7 -12 -16 -15 -14 -5 -15 -4 -4 9 14
17 20 19 20 6z m-717 -66 c-3 -9 -8 -14 -10 -11 -3 3 -2 9 2 15 9 16 15 13 8
-4z m937 -20 c0 -2 -10 -10 -22 -16 -21 -11 -22 -11 -9 4 13 16 31 23 31 12z
m110 0 c0 -2 -10 -9 -22 -15 -22 -11 -22 -10 -4 4 21 17 26 19 26 11z m430
-95 c0 -5 -5 -10 -11 -10 -5 0 -7 5 -4 10 3 6 8 10 11 10 2 0 4 -4 4 -10z
m-2039 -127 c-12 -20 -14 -14 -5 12 4 9 9 14 11 11 3 -2 0 -13 -6 -23z m2004
1 c-24 -18 -117 -65 -121 -61 -3 3 126 75 136 76 3 0 -4 -7 -15 -15z m-2022
-39 c-3 -9 -8 -14 -10 -11 -3 3 -2 9 2 15 9 16 15 13 8 -4z m2002 -215 c-33
-16 -73 -34 -90 -40 -27 -9 -28 -9 -15 4 25 25 113 66 140 65 19 -1 11 -7 -35
-29z m-155 -150 c-8 -5 -19 -10 -25 -10 -5 0 -3 5 5 10 8 5 20 10 25 10 6 0 3
-5 -5 -10z m-1968 -192 c-6 -6 -7 0 -4 19 5 21 7 23 10 9 2 -10 0 -22 -6 -28z
m-675 -674 c-3 -3 -12 -4 -19 -1 -8 3 -5 6 6 6 11 1 17 -2 13 -5z m3843 -127
c0 -14 -39 -41 -47 -33 -3 3 2 8 11 12 9 3 16 12 16 20 0 8 5 14 10 14 6 0 10
-6 10 -13z m-70 -117 c0 -5 -5 -10 -11 -10 -5 0 -7 5 -4 10 3 6 8 10 11 10 2
0 4 -4 4 -10z m308 -198 c8 -5 10 -16 6 -27 -6 -14 -4 -16 6 -10 8 5 11 4 6
-3 -10 -16 -36 -3 -29 15 3 8 0 19 -8 24 -8 5 -9 9 -4 9 6 0 16 -4 23 -8z
m-4988 -761 c-12 -23 -30 -36 -30 -22 0 10 27 41 36 41 3 0 0 -9 -6 -19z
m5300 -2 c0 -5 -4 -9 -8 -9 -5 0 -9 7 -9 15 0 8 4 12 9 9 4 -3 8 -9 8 -15z
m84 -38 c-5 -6 -64 40 -64 51 0 5 15 -3 33 -19 19 -15 33 -30 31 -32z m51
-161 c16 -17 16 -20 3 -15 -9 4 -19 13 -22 21 -7 19 -2 18 19 -6z m165 -216
c0 -2 -7 -4 -15 -4 -8 0 -15 4 -15 10 0 5 7 7 15 4 8 -4 15 -8 15 -10z m-5800
-208 c0 -2 -7 -9 -15 -16 -13 -11 -14 -10 -9 4 5 14 24 23 24 12z m-40 -56 c0
-5 -5 -10 -11 -10 -5 0 -7 5 -4 10 3 6 8 10 11 10 2 0 4 -4 4 -10z m5610 -120
c0 -5 -5 -10 -11 -10 -5 0 -7 5 -4 10 3 6 8 10 11 10 2 0 4 -4 4 -10z m-60
-245 c0 -8 -2 -15 -4 -15 -2 0 -6 7 -10 15 -3 8 -1 15 4 15 6 0 10 -7 10 -15z
m405 -255 c-3 -5 -1 -10 4 -10 6 0 11 -10 11 -22 -1 -23 -1 -23 -15 2 -17 30
-18 40 -4 40 5 0 7 -4 4 -10z m-215 -61 c0 -6 -4 -7 -10 -4 -5 3 -10 11 -10
16 0 6 5 7 10 4 6 -3 10 -11 10 -16z m20 -40 c0 -6 -4 -7 -10 -4 -5 3 -10 11
-10 16 0 6 5 7 10 4 6 -3 10 -11 10 -16z m91 -51 c8 -15 8 -18 0 -14 -6 4 -16
16 -22 28 -8 15 -8 18 0 14 6 -4 16 -16 22 -28z m-74 0 c-3 -8 -6 -5 -6 6 -1
11 2 17 5 13 3 -3 4 -12 1 -19z m41 -3 c-3 -3 -9 2 -12 12 -6 14 -5 15 5 6 7
-7 10 -15 7 -18z m90 -30 c-3 -3 -9 2 -12 12 -6 14 -5 15 5 6 7 -7 10 -15 7
-18z m-65 3 c11 -12 19 -48 12 -48 -2 0 -10 14 -19 30 -15 32 -13 38 7 18z
m166 -45 c13 -28 13 -28 -8 -9 -22 20 -27 36 -13 36 5 0 14 -12 21 -27z m-305
-9 c3 -8 2 -12 -4 -9 -6 3 -10 10 -10 16 0 14 7 11 14 -7z m-184 -56 c0 -4 -6
-5 -14 -2 -8 3 -12 12 -9 21 5 12 7 12 14 1 5 -7 9 -16 9 -20z m208 -9 c-3 -8
-7 -3 -11 10 -4 17 -3 21 5 13 5 -5 8 -16 6 -23z m92 -155 c0 -4 -9 3 -20 16
-11 13 -20 27 -20 33 0 5 9 -2 20 -16 11 -14 20 -29 20 -33z m97 50 c-3 -3
-12 -4 -19 -1 -8 3 -5 6 6 6 11 1 17 -2 13 -5z m23 -49 c0 -5 -5 -3 -10 5 -5
8 -10 20 -10 25 0 6 5 3 10 -5 5 -8 10 -19 10 -25z m-342 -20 c-3 -3 -9 2 -12
12 -6 14 -5 15 5 6 7 -7 10 -15 7 -18z m252 -35 c6 -11 7 -20 3 -20 -5 0 -14
9 -21 20 -7 11 -8 20 -2 20 5 0 14 -9 20 -20z m50 -97 c19 -38 38 -71 44 -75
11 -7 15 -58 5 -58 -4 0 -13 14 -21 30 -7 17 -17 30 -21 30 -5 0 -6 4 -2 9 3
5 -3 17 -12 27 -10 10 -17 19 -15 21 7 9 -1 21 -20 31 -13 6 -17 11 -10 11 6
1 12 6 12 12 0 6 -7 8 -16 5 -14 -5 -15 -4 -4 9 7 8 16 15 20 15 3 0 22 -30
40 -67z m-503 11 c-3 -3 -12 -4 -19 -1 -8 3 -5 6 6 6 11 1 17 -2 13 -5z m-1
-29 c-6 -16 8 -47 31 -73 7 -7 16 -24 19 -38 3 -13 11 -21 17 -17 5 3 7 1 3
-5 -3 -6 -2 -13 4 -17 5 -3 10 -12 10 -20 0 -10 -5 -11 -24 -2 -16 8 -20 14
-13 19 8 5 6 9 -5 13 -9 4 -15 15 -13 25 2 10 -8 34 -21 54 -16 23 -23 44 -19
56 4 11 9 20 12 20 3 0 2 -7 -1 -15z m168 -34 c-5 -5 -33 30 -34 43 0 4 9 -2
19 -15 11 -13 17 -26 15 -28z m-114 -11 c7 -16 16 -30 21 -30 5 0 9 -7 9 -15
0 -8 5 -15 10 -15 6 0 10 -5 10 -10 0 -6 8 -19 18 -30 17 -19 48 -93 57 -138
2 -12 7 -28 10 -35 4 -6 -3 -1 -14 13 -11 14 -19 31 -16 38 2 6 0 12 -6 12 -6
0 -7 5 -4 10 3 6 2 10 -4 10 -6 0 -7 7 -4 17 5 12 3 14 -7 8 -10 -6 -12 -4 -7
8 3 9 -4 27 -19 44 -13 15 -27 37 -30 48 -8 22 -44 76 -59 87 -6 5 -3 8 6 8 9
0 22 -13 29 -30z m288 -57 c48 -102 46 -97 33 -89 -10 7 -81 146 -81 160 0 20
16 -3 48 -71z m-218 16 c0 -10 4 -21 10 -24 6 -4 7 1 3 11 -4 12 -3 15 6 10 7
-4 10 -13 8 -19 -2 -7 0 -20 5 -31 8 -14 7 -17 -3 -14 -7 2 -24 28 -37 58 -17
38 -19 50 -8 40 9 -7 16 -21 16 -31z m138 -5 c16 -33 20 -50 12 -62 -8 -14 -9
-13 -10 8 0 14 -9 39 -20 55 -21 32 -25 45 -12 45 4 0 18 -21 30 -46z m-48 17
c5 -11 7 -22 2 -25 -4 -2 -12 7 -19 20 -13 28 2 33 17 5z m92 -106 c-5 -26 -3
-28 10 -17 13 10 21 2 52 -58 41 -78 41 -93 1 -27 -15 23 -24 34 -21 25 3 -10
2 -18 -3 -18 -5 0 -11 9 -14 20 -3 12 -1 18 5 14 6 -4 9 -1 7 5 -3 7 -7 11
-11 9 -11 -6 -48 35 -48 54 0 11 5 16 10 13 7 -4 9 3 5 22 -4 22 -3 24 4 8 5
-11 6 -33 3 -50z m-161 -95 c2 -39 6 -67 13 -90 7 -24 6 -24 -8 -6 -9 11 -17
28 -17 38 -1 10 -3 23 -4 28 -1 6 -3 16 -4 23 -1 8 -4 8 -12 -3 -7 -11 -9 -6
-4 20 7 34 6 35 -10 12 -9 -12 -13 -27 -10 -32 3 -6 1 -10 -4 -10 -6 0 -10 11
-9 24 1 14 5 23 9 20 13 -8 19 28 8 45 -6 9 3 0 20 -19 17 -19 31 -41 32 -50z
m-81 55 c11 -13 10 -14 -4 -9 -9 3 -16 10 -16 15 0 13 6 11 20 -6z m346 -23
c-4 -3 -11 0 -16 8 -15 24 -11 33 6 15 9 -9 13 -19 10 -23z m202 13 c-3 -3 -9
2 -12 12 -6 14 -5 15 5 6 7 -7 10 -15 7 -18z m-403 -4 c-3 -5 -1 -12 5 -16 6
-3 17 -23 26 -43 8 -20 25 -48 37 -62 12 -14 15 -19 7 -12 -22 19 -32 14 -25
-10 5 -18 4 -20 -4 -8 -6 8 -8 23 -5 33 3 9 1 17 -4 17 -13 0 -54 88 -47 100
3 5 8 10 11 10 3 0 3 -4 -1 -9z m176 -199 c17 -41 29 -76 26 -78 -4 -4 -79
152 -81 168 -1 3 -4 10 -8 14 -5 4 -8 12 -8 18 0 20 40 -48 71 -122z m-281 97
c0 -6 -4 -7 -10 -4 -5 3 -10 11 -10 16 0 6 5 7 10 4 6 -3 10 -11 10 -16z m30
-32 c0 -5 -4 -5 -10 -2 -5 3 -10 14 -10 23 0 15 2 15 10 2 5 -8 10 -19 10 -23z
m53 3 c3 -11 2 -18 -3 -15 -4 3 -10 14 -13 25 -3 11 -2 18 3 15 4 -3 10 -14
13 -25z m246 -25 c0 -5 -6 -1 -14 9 -8 11 -15 27 -15 35 1 17 29 -26 29 -44z
m111 -24 c0 -6 -4 -13 -10 -16 -5 -3 -10 1 -10 9 0 9 5 16 10 16 6 0 10 -4 10
-9z m-405 -69 c-3 -3 -11 0 -18 8 -9 10 -9 11 0 6 9 -5 11 2 8 26 l-5 33 11
-34 c5 -18 8 -36 4 -39z m-82 5 c12 -36 12 -44 1 -44 -7 0 -11 4 -8 9 3 4 -2
22 -10 40 -19 36 -19 38 -7 38 5 0 16 -19 24 -43z m22 -97 c10 -11 16 -20 13
-20 -3 0 -13 9 -23 20 -10 11 -16 20 -13 20 3 0 13 -9 23 -20z m334 -40 c0 -8
-6 0 -14 19 -8 18 -15 36 -15 40 1 13 29 -45 29 -59z m65 11 c-2 -3 -12 3 -22
13 -16 17 -16 18 5 5 12 -7 20 -15 17 -18z m200 13 c9 -24 2 -26 -12 -4 -7 11
-8 20 -3 20 5 0 12 -7 15 -16z m-236 -25 c-3 -8 -7 -3 -11 10 -4 17 -3 21 5
13 5 -5 8 -16 6 -23z m62 -20 c0 -6 -4 -7 -10 -4 -5 3 -10 11 -10 16 0 6 5 7
10 4 6 -3 10 -11 10 -16z m5 -48 c3 -5 0 -13 -6 -17 -8 -5 -9 -3 -4 6 6 9 4
11 -4 6 -7 -5 -10 -14 -7 -22 3 -8 2 -14 -3 -14 -5 0 -11 15 -13 34 -3 30 -2
33 14 25 9 -5 19 -13 23 -18z m-399 -18 c9 -36 -2 -39 -20 -6 -13 26 -13 30 0
30 8 0 17 -11 20 -24z m-116 -54 c0 -8 -11 3 -25 23 -14 20 -25 40 -25 43 0 4
11 -7 25 -23 14 -17 25 -36 25 -43z m305 61 c3 -5 1 -10 -4 -10 -6 0 -11 5
-11 10 0 6 2 10 4 10 3 0 8 -4 11 -10z m160 -41 c10 -30 2 -32 -12 -3 -6 13
-7 24 -3 24 5 0 12 -9 15 -21z m26 -54 c5 4 6 -1 2 -10 -5 -13 -7 -14 -14 -3
-5 7 -8 18 -8 23 0 6 3 4 6 -3 2 -6 9 -10 14 -7z m-506 -55 l6 -35 -15 34
c-18 38 -21 60 -6 45 5 -5 12 -25 15 -44z m262 28 c-3 -8 -6 -5 -6 6 -1 11 2
17 5 13 3 -3 4 -12 1 -19z m-339 -19 c-3 -8 -7 -3 -11 10 -4 17 -3 21 5 13 5
-5 8 -16 6 -23z m141 -6 c6 -20 8 -40 4 -46 -3 -5 3 -4 14 2 18 9 20 7 15 -16
l-5 -27 -23 27 c-13 15 -21 34 -18 42 4 8 2 15 -3 15 -5 0 -9 9 -9 20 0 32 14
23 25 -17z m111 27 c0 -5 -2 -10 -4 -10 -3 0 -8 5 -11 10 -3 6 -1 10 4 10 6 0
11 -4 11 -10z m100 -55 c0 -5 -5 -3 -10 5 -5 8 -10 20 -10 25 0 6 5 3 10 -5 5
-8 10 -19 10 -25z m237 13 c-3 -8 -6 -5 -6 6 -1 11 2 17 5 13 3 -3 4 -12 1
-19z m-612 -8 c3 -5 1 -10 -4 -10 -6 0 -11 5 -11 10 0 6 2 10 4 10 3 0 8 -4
11 -10z m134 -52 c10 -30 9 -31 -4 -14 -8 11 -15 26 -15 33 0 22 8 14 19 -19z
m211 -13 c0 -8 4 -15 9 -15 5 0 11 -6 14 -13 3 -8 -1 -14 -9 -14 -7 0 -11 4
-9 8 3 3 -2 12 -10 19 -17 14 -20 30 -5 30 6 0 10 -7 10 -15z m-345 -24 c-9
-16 -25 -3 -18 15 4 10 9 12 15 6 6 -6 7 -15 3 -21z m169 -27 c10 -38 0 -41
-12 -5 -6 17 -7 31 -3 31 5 0 12 -12 15 -26z m226 -19 c19 -22 8 -25 -12 -3
-10 10 -14 18 -9 18 5 0 14 -7 21 -15z m-371 -59 c-3 -3 -11 5 -18 17 -13 21
-12 21 5 5 10 -10 16 -20 13 -22z m298 -148 c5 -42 4 -43 -12 -20 -11 15 -15
32 -10 49 8 34 17 23 22 -29z m-87 -13 c14 -19 14 -19 -2 -6 -10 7 -18 18 -18
24 0 6 1 8 3 6 1 -2 9 -13 17 -24z m188 -170 c-3 -3 -9 2 -12 12 -6 14 -5 15
5 6 7 -7 10 -15 7 -18z m-5581 -47 c-3 -7 -5 -2 -5 12 0 14 2 19 5 13 2 -7 2
-19 0 -25z m4988 -6 c-3 -3 -11 0 -18 7 -9 10 -8 11 6 5 10 -3 15 -9 12 -12z
m-121 -118 c3 -8 2 -12 -4 -9 -6 3 -10 10 -10 16 0 14 7 11 14 -7z m-394 -42
c0 -12 -3 -12 -15 -2 -8 7 -15 13 -15 15 0 1 7 2 15 2 8 0 15 -7 15 -15z m65
-22 c3 -5 1 -10 -4 -10 -6 0 -11 5 -11 10 0 6 2 10 4 10 3 0 8 -4 11 -10z
m-29 -37 c-5 -15 -4 -15 9 1 13 18 15 18 15 3 0 -17 -26 -35 -36 -25 -5 6 6
38 13 38 3 0 2 -8 -1 -17z m804 -24 c0 -11 -4 -18 -10 -14 -5 3 -7 12 -3 20 7
21 13 19 13 -6z m-963 -26 c-3 -10 -5 -4 -5 12 0 17 2 24 5 18 2 -7 2 -21 0
-30z m200 15 c-3 -8 -6 -5 -6 6 -1 11 2 17 5 13 3 -3 4 -12 1 -19z m-80 -35
c-3 -10 -5 -4 -5 12 0 17 2 24 5 18 2 -7 2 -21 0 -30z m60 31 c-3 -3 -12 -4
-19 -1 -8 3 -5 6 6 6 11 1 17 -2 13 -5z m-187 -46 c-12 -5 -18 -14 -15 -27 2
-11 -2 -24 -8 -27 -7 -4 -9 -4 -5 1 4 4 3 16 -3 26 -6 13 -6 19 1 19 5 0 10 5
10 11 0 5 -4 7 -10 4 -5 -3 -10 -2 -10 3 0 17 11 20 35 8 22 -10 23 -11 5 -18z
m-215 12 c3 -6 -1 -7 -9 -4 -18 7 -21 14 -7 14 6 0 13 -4 16 -10z m1185 -4 c0
-3 -4 -8 -10 -11 -5 -3 -10 -1 -10 4 0 6 5 11 10 11 6 0 10 -2 10 -4z m-1149
-30 c-7 -8 -9 -25 -5 -42 5 -19 4 -25 -5 -20 -19 12 -10 76 11 76 6 0 6 -6 -1
-14z m69 4 c0 -5 -2 -10 -4 -10 -3 0 -8 5 -11 10 -3 6 -1 10 4 10 6 0 11 -4
11 -10z m318 -15 c-3 -3 -9 2 -12 12 -6 14 -5 15 5 6 7 -7 10 -15 7 -18z m764
3 c-7 -7 -12 -8 -12 -2 0 14 12 26 19 19 2 -3 -1 -11 -7 -17z m-1042 -13 c0
-8 -4 -15 -10 -15 -5 0 -7 7 -4 15 4 8 8 15 10 15 2 0 4 -7 4 -15z m85 -14 c2
-11 0 -21 -4 -21 -5 0 -8 11 -8 25 0 30 6 28 12 -4z m152 -43 c-3 -8 -6 -5 -6
6 -1 11 2 17 5 13 3 -3 4 -12 1 -19z m-396 -11 c-10 -9 -11 -8 -5 6 3 10 9 15
12 12 3 -3 0 -11 -7 -18z m93 7 c3 -8 2 -12 -4 -9 -6 3 -10 10 -10 16 0 14 7
11 14 -7z m63 -16 c-3 -8 -6 -5 -6 6 -1 11 2 17 5 13 3 -3 4 -12 1 -19z m98 2
c3 -5 1 -10 -4 -10 -6 0 -11 5 -11 10 0 6 2 10 4 10 3 0 8 -4 11 -10z m-291
-75 c5 -29 4 -36 -3 -25 -6 8 -11 28 -11 44 0 39 6 31 14 -19z m95 -3 c8 -14
6 -19 -5 -19 -7 0 -14 9 -14 19 0 10 2 18 5 18 2 0 9 -8 14 -18z m-129 -2 c0
-5 -5 -10 -11 -10 -5 0 -7 5 -4 10 3 6 8 10 11 10 2 0 4 -4 4 -10z m15 -39 c3
-5 1 -12 -5 -16 -5 -3 -10 1 -10 9 0 18 6 21 15 7z m35 -36 c0 -5 -5 -3 -10 5
-5 8 -10 20 -10 25 0 6 5 3 10 -5 5 -8 10 -19 10 -25z m95 19 c13 -5 14 -8 3
-15 -10 -7 -9 -9 4 -9 17 0 17 -1 0 -21 -32 -39 -47 -40 -49 -5 -1 21 1 25 6
13 6 -17 8 -16 18 6 9 20 9 27 0 31 -18 7 -1 7 18 0z m-115 -40 c6 -14 15 -22
21 -19 6 4 5 -2 -2 -13 -16 -25 -19 -23 -29 22 -9 42 -4 47 10 10z m-387 -6
c19 5 20 3 9 -11 -8 -9 -11 -21 -7 -28 6 -8 2 -8 -14 0 -18 10 -21 9 -21 -10
0 -17 -3 -19 -14 -10 -14 12 -10 65 5 55 5 -3 9 1 10 8 0 9 2 9 5 2 3 -7 15
-9 27 -6z m154 -22 c-1 -19 -5 -32 -9 -28 -6 7 1 62 8 62 2 0 3 -16 1 -34z
m472 -10 c-1 -20 -2 -20 -6 -1 -3 11 -10 27 -17 35 -10 13 -9 13 7 1 9 -7 16
-23 16 -35z m-703 -21 c-3 -10 1 -15 12 -15 14 0 14 -2 3 -9 -17 -11 -46 13
-36 29 10 16 28 12 21 -5z m559 -9 c0 -15 -4 -21 -9 -16 -5 5 -6 16 -3 24 9
22 12 20 12 -8z m-705 -6 c0 -5 -5 -10 -11 -10 -5 0 -7 5 -4 10 3 6 8 10 11
10 2 0 4 -4 4 -10z m220 6 c0 -3 -4 -8 -10 -11 -5 -3 -10 -1 -10 4 0 6 5 11
10 11 6 0 10 -2 10 -4z m450 -48 c0 -10 -11 -24 -25 -30 -27 -12 -35 -31 -10
-22 13 5 14 2 5 -22 -6 -15 -7 -30 -2 -33 5 -3 11 -11 13 -18 3 -8 9 -9 19 -3
13 8 12 12 -5 25 -18 15 -18 16 -1 11 15 -5 18 -2 14 19 -4 16 -1 24 6 22 6
-2 11 -10 11 -18 0 -8 6 -20 13 -27 15 -16 16 -32 2 -32 -5 0 -10 -8 -10 -18
0 -10 7 -18 18 -18 13 0 18 10 20 39 2 27 -1 36 -9 32 -8 -6 -8 -2 0 13 6 12
7 22 2 24 -5 2 -3 14 4 28 13 25 14 24 13 -15 -2 -79 2 -111 11 -96 5 8 11 9
15 3 3 -6 2 -13 -4 -17 -15 -9 -12 -22 6 -29 12 -4 15 -2 10 9 -3 8 -1 15 3
15 5 0 12 -6 14 -12 3 -8 6 -7 6 4 1 9 -3 19 -8 23 -6 3 -9 24 -9 48 0 23 3
36 5 30 7 -21 23 -15 23 9 0 43 10 10 16 -53 6 -66 23 -116 24 -71 0 12 5 22
11 22 5 0 8 -4 5 -9 -4 -5 4 -7 16 -3 23 5 23 5 4 -16 -11 -12 -27 -22 -36
-22 -9 0 -22 -10 -28 -22 -6 -13 -11 -18 -11 -11 -1 6 -12 2 -25 -10 -13 -12
-22 -26 -19 -30 3 -5 9 -4 13 3 5 8 9 7 13 -4 4 -11 1 -16 -11 -16 -13 0 -14
-2 -3 -9 7 -5 10 -14 7 -20 -11 -18 -24 -13 -28 12 -3 20 -5 20 -21 -10 -10
-18 -25 -33 -34 -33 -9 0 -22 -8 -30 -17 -10 -13 -16 -15 -19 -6 -4 10 -12 9
-35 -2 -16 -9 -29 -20 -29 -26 0 -6 -7 -9 -15 -6 -8 4 -17 2 -20 -3 -8 -13
-42 -13 -47 1 -2 6 -20 -1 -41 -15 -31 -22 -42 -24 -59 -15 -16 9 -23 8 -29
-2 -12 -19 -11 -32 1 -24 17 11 11 -1 -12 -21 -21 -19 -21 -19 -16 2 8 32 -6
51 -26 35 -9 -7 -13 -17 -10 -22 3 -5 -5 -5 -18 0 -12 4 -26 21 -30 37 -11 36
-1 156 13 164 5 4 9 13 7 21 -2 9 4 13 15 11 9 -2 17 2 17 8 0 6 10 8 24 4 13
-3 27 -1 31 5 3 6 10 9 14 6 5 -2 11 9 15 25 5 28 26 43 26 20 0 -5 -4 -10 -8
-10 -4 0 -9 -10 -9 -22 -2 -16 0 -19 6 -9 6 10 13 10 29 2 25 -13 44 7 46 48
1 16 5 27 9 24 4 -2 5 6 2 19 -4 15 4 36 22 64 23 34 32 40 48 33 11 -4 17 -8
13 -8 -5 -1 -11 -1 -15 -2 -16 -2 -33 -22 -33 -40 0 -11 -7 -19 -15 -19 -8 0
-15 -4 -15 -10 0 -5 8 -7 18 -4 13 5 14 4 3 -4 -8 -6 -10 -15 -6 -22 6 -10 11
-9 22 5 7 11 13 14 13 8 0 -5 -11 -22 -25 -37 -22 -24 -32 -46 -21 -46 2 0 19
7 39 15 26 11 35 20 35 40 0 14 -4 25 -9 25 -5 0 -9 5 -9 10 0 6 6 9 12 8 8
-2 13 10 15 30 1 21 11 42 28 57 21 20 24 28 15 44 -15 29 -12 39 5 17 8 -11
15 -28 15 -38z m-960 22 c-8 -5 -19 -10 -25 -10 -5 0 -3 5 5 10 8 5 20 10 25
10 6 0 3 -5 -5 -10z m653 -20 c-3 -11 -10 -23 -16 -27 -7 -4 -8 0 -4 11 4 10
7 22 7 27 0 5 4 9 9 9 5 0 7 -9 4 -20z m-378 0 c3 -5 1 -10 -4 -10 -6 0 -11 5
-11 10 0 6 2 10 4 10 3 0 8 -4 11 -10z m96 -23 c-10 -9 -11 -8 -5 6 3 10 9 15
12 12 3 -3 0 -11 -7 -18z m-2631 -32 c14 -19 14 -19 -2 -6 -10 7 -18 18 -18
24 0 6 1 8 3 6 1 -2 9 -13 17 -24z m60 -49 c0 -16 -2 -17 -16 -5 -9 8 -12 15
-6 17 8 2 8 12 1 28 -14 37 -9 44 6 9 8 -16 14 -38 15 -49z m1615 45 c3 -5 1
-12 -5 -16 -5 -3 -10 1 -10 9 0 18 6 21 15 7z m513 -4 c15 4 15 3 2 -6 -22
-15 -30 -14 -29 7 0 9 3 12 5 5 3 -7 13 -9 22 -6z m332 4 c0 -6 -4 -13 -10
-16 -5 -3 -10 1 -10 9 0 9 5 16 10 16 6 0 10 -4 10 -9z m70 -11 c-8 -6 -22
-10 -30 -10 -8 0 -4 6 10 13 27 15 44 12 20 -3z m-440 -19 c0 -5 -15 -15 -34
-21 -19 -6 -37 -16 -40 -23 -3 -7 -4 -3 -3 8 2 17 18 27 75 44 1 1 2 -3 2 -8z
m-450 -21 c0 -5 -2 -10 -4 -10 -3 0 -8 5 -11 10 -3 6 -1 10 4 10 6 0 11 -4 11
-10z m1630 0 c0 -5 -5 -10 -11 -10 -5 0 -7 5 -4 10 3 6 8 10 11 10 2 0 4 -4 4
-10z m309 -54 c-3 -3 -11 5 -18 17 -13 21 -12 21 5 5 10 -10 16 -20 13 -22z
m-120 -72 c2 -58 -1 -71 -13 -71 -13 0 -13 3 -3 16 8 9 8 12 1 8 -7 -4 -15 0
-18 9 -4 10 -2 13 6 8 8 -5 9 -2 5 10 -4 11 -3 15 4 10 7 -4 9 0 6 12 -3 11
-9 37 -13 59 -6 35 -5 38 8 25 10 -10 16 -39 17 -86z m329 82 c-8 -9 -15 -10
-19 -4 -4 6 -12 2 -18 -10 -10 -18 -9 -21 5 -15 14 5 14 3 3 -15 -9 -14 -17
-18 -25 -11 -8 6 -16 3 -25 -8 -13 -16 -12 -17 2 -5 15 11 17 10 15 -11 0 -14
-6 -23 -12 -20 -6 2 -23 -3 -39 -11 -37 -20 -44 -12 -17 17 23 25 28 42 13 51
-5 4 -7 -4 -5 -16 4 -21 4 -21 -5 -3 -6 14 -4 25 8 36 13 13 17 13 19 2 5 -19
17 -16 49 12 31 27 74 37 51 11z m-798 -17 c0 -5 -4 -9 -8 -9 -5 0 -9 7 -9 15
0 8 4 12 9 9 4 -3 8 -9 8 -15z m510 -3 c0 -3 -4 -8 -10 -11 -5 -3 -10 -1 -10
4 0 6 5 11 10 11 6 0 10 -2 10 -4z m338 -14 c10 7 14 8 9 3 -4 -4 0 -19 8 -31
14 -22 14 -23 -38 -31 -47 -8 -52 -7 -55 10 -2 11 1 24 7 30 8 8 11 6 11 -5 0
-12 9 -16 31 -16 24 1 27 3 15 10 -9 5 -21 6 -26 3 -14 -9 -12 3 3 19 6 8 14
10 15 5 2 -6 11 -4 20 3z m-2000 -31 c0 -17 -5 -32 -14 -35 -8 -3 -14 -1 -14
4 0 5 -10 12 -22 16 l-22 7 23 18 c33 27 48 24 49 -10z m1142 19 c0 -5 -5 -10
-11 -10 -5 0 -7 5 -4 10 3 6 8 10 11 10 2 0 4 -4 4 -10z m630 -35 c0 -5 -5 -3
-10 5 -5 8 -10 20 -10 25 0 6 5 3 10 -5 5 -8 10 -19 10 -25z m304 10 c-7 -18
-20 -19 -30 -3 -4 7 -3 8 4 4 7 -4 12 -2 12 3 0 6 4 11 10 11 5 0 7 -7 4 -15z
m51 -5 c-3 -5 -16 -10 -28 -9 -21 0 -21 1 -2 9 28 12 37 12 30 0z m-1580 -10
c3 -5 1 -10 -4 -10 -6 0 -11 5 -11 10 0 6 2 10 4 10 3 0 8 -4 11 -10z m955
-31 c0 -5 4 -8 9 -4 5 3 13 0 17 -6 4 -7 3 -9 -4 -5 -6 4 -12 -4 -14 -21 -2
-16 -9 -28 -18 -29 -25 -1 -32 7 -20 21 7 8 9 23 5 35 -5 14 -2 20 9 20 9 0
16 -5 16 -11z m-1563 -5 c-3 -3 -12 -4 -19 -1 -8 3 -5 6 6 6 11 1 17 -2 13 -5z
m-18 -31 c2 -2 -5 -3 -17 -3 -14 0 -22 6 -22 16 0 14 3 15 18 3 9 -7 19 -15
21 -16z m424 -50 c-7 -2 -19 -2 -25 0 -7 3 -2 5 12 5 14 0 19 -2 13 -5z m54 1
c-3 -3 -12 -4 -19 -1 -8 3 -5 6 6 6 11 1 17 -2 13 -5z"/>
<path d="M5400 8325 c-7 -8 -9 -15 -6 -15 4 0 14 7 22 15 9 8 11 15 6 15 -5 0
-15 -7 -22 -15z"/>
<path d="M4692 8211 c-7 -19 -10 -36 -7 -39 6 -7 26 49 22 62 -2 6 -9 -5 -15
-23z"/>
<path d="M5335 8110 c-22 -22 -35 -40 -29 -40 13 0 79 68 73 75 -3 2 -23 -13
-44 -35z"/>
<path d="M5560 8039 c-33 -20 -85 -69 -74 -69 9 0 90 58 103 74 18 21 13 20
-29 -5z"/>
<path d="M5255 8020 c-3 -5 -1 -10 4 -10 6 0 11 5 11 10 0 6 -2 10 -4 10 -3 0
-8 -4 -11 -10z"/>
<path d="M4303 7830 c0 -30 2 -43 4 -27 2 15 2 39 0 55 -2 15 -4 2 -4 -28z"/>
<path d="M5805 7820 c-3 -6 1 -7 9 -4 18 7 21 14 7 14 -6 0 -13 -4 -16 -10z"/>
<path d="M5695 7724 l-30 -26 33 22 c17 12 32 23 32 26 0 7 -4 5 -35 -22z"/>
<path d="M4159 7729 c-1 -8 -1 -18 0 -22 1 -5 2 -40 4 -78 1 -38 5 -69 9 -69
5 0 8 11 8 24 0 14 5 28 11 32 8 5 10 -1 6 -18 -4 -16 -1 -32 9 -44 15 -18 15
-17 10 15 -3 18 -6 50 -6 70 0 37 -49 122 -51 90z"/>
<path d="M4121 7645 c-11 -50 -11 -59 0 -48 6 6 9 21 6 34 -2 13 -5 20 -6 14z"/>
<path d="M4099 7563 c18 -35 12 -50 -9 -23 l-20 25 10 -34 c8 -30 35 -73 29
-46 -1 6 1 23 6 38 6 22 3 33 -10 45 -16 16 -17 16 -6 -5z"/>
<path d="M4177 7483 c4 -11 3 -14 -5 -9 -8 5 -10 2 -6 -8 5 -12 9 -13 19 -3
13 12 9 37 -6 37 -4 0 -5 -7 -2 -17z"/>
<path d="M4115 7457 c-4 -14 -4 -34 -1 -44 10 -27 54 -78 62 -70 4 3 2 12 -4
20 -6 7 -14 32 -18 55 -8 53 -30 75 -39 39z m19 -23 c3 -8 2 -12 -4 -9 -6 3
-10 10 -10 16 0 14 7 11 14 -7z"/>
<path d="M4224 7464 c3 -9 6 -32 7 -52 1 -36 1 -37 9 -9 8 28 -2 77 -16 77 -3
0 -3 -7 0 -16z"/>
<path d="M4200 7420 c0 -5 5 -10 11 -10 5 0 7 5 4 10 -3 6 -8 10 -11 10 -2 0
-4 -4 -4 -10z"/>
<path d="M5720 7400 c-11 -7 -3 -10 28 -10 26 0 41 4 37 10 -8 13 -45 13 -65
0z"/>
<path d="M4186 7380 c3 -14 6 -33 7 -42 1 -12 5 -14 11 -8 6 6 4 21 -7 42 -14
26 -16 28 -11 8z"/>
<path d="M6307 6335 c-7 -6 -75 -33 -152 -60 -124 -43 -207 -75 -270 -106 -11
-5 -30 -11 -43 -12 -12 0 -22 -7 -22 -14 0 -7 -3 -12 -7 -11 -14 4 -85 -24
-118 -47 -18 -12 -48 -27 -66 -34 -19 -7 -77 -32 -129 -56 -52 -24 -124 -55
-160 -70 -36 -15 -74 -34 -85 -41 -27 -19 -32 -18 -43 14 -10 27 -10 26 -11
-10 l-1 -38 -21 21 c-23 23 -44 68 -66 143 -20 65 -35 81 -50 50 -6 -14 -7
-26 -2 -30 5 -3 9 -20 8 -37 0 -27 -2 -29 -9 -12 -5 11 -9 14 -9 7 -1 -7 -6
-10 -11 -7 -6 4 -8 10 -5 15 3 4 -1 13 -9 19 -18 15 -25 -2 -22 -57 1 -23 0
-42 -3 -42 -4 0 -7 -24 -9 -52 -2 -50 -1 -54 28 -70 16 -9 30 -13 30 -8 0 18
18 10 23 -10 7 -25 1 -25 -49 4 -71 40 -250 91 -424 121 -41 7 -109 20 -150
28 -41 9 -131 23 -200 32 -69 9 -159 23 -200 31 -41 8 -124 21 -185 29 -60 7
-123 18 -138 24 -47 18 -63 14 -33 -10 31 -25 56 -69 56 -101 1 -13 10 -34 21
-48 18 -21 23 -23 33 -10 30 38 53 42 154 25 178 -29 257 -48 278 -66 11 -11
28 -19 37 -19 23 0 43 -36 57 -102 6 -31 22 -73 36 -93 13 -20 24 -39 24 -43
0 -4 -41 -15 -91 -23 -73 -12 -103 -13 -158 -4 -37 7 -74 16 -83 21 -40 23
-120 109 -134 145 -14 32 -20 38 -38 33 -14 -3 -27 1 -35 10 -20 24 -32 19
-20 -8 13 -27 49 -41 61 -23 4 7 13 -3 23 -28 28 -70 37 -84 96 -142 78 -77
96 -85 193 -85 117 0 255 33 283 68 19 25 25 26 71 20 95 -12 180 20 254 95
42 43 52 48 90 48 55 -1 137 7 145 15 3 3 13 2 22 -3 23 -12 131 -21 131 -11
0 5 -6 11 -12 13 -9 4 -7 6 3 6 16 1 59 -38 43 -40 -5 0 13 -7 41 -16 57 -17
110 -53 79 -53 -30 0 30 -32 106 -57 95 -31 139 -41 195 -47 28 -3 68 -9 90
-13 55 -10 148 -7 220 6 33 6 71 13 85 15 14 2 27 5 30 6 3 2 10 4 15 5 38 7
66 19 73 31 4 8 18 16 31 19 13 2 29 9 37 16 8 6 23 9 34 6 10 -3 19 -2 18 2
-3 14 15 41 27 41 7 0 16 7 19 16 3 8 10 12 16 9 5 -3 10 -1 10 5 0 6 4 8 10
5 5 -3 15 5 22 19 6 14 15 26 20 26 5 0 6 5 3 11 -4 5 -1 18 7 27 36 42 49
108 49 244 0 73 -3 152 -6 174 -4 26 -3 44 4 48 18 11 14 66 -5 66 -10 0 -14
6 -10 15 3 10 -1 15 -13 15 -10 0 -21 3 -25 7 -12 12 -97 10 -109 -2z m28
-339 c16 -24 20 -38 13 -42 -7 -4 -8 -3 -4 4 4 7 2 12 -3 12 -14 0 -14 -16 -1
-40 8 -15 6 -20 -10 -25 -11 -4 -18 -11 -15 -16 10 -15 -14 -49 -30 -43 -9 4
-15 0 -15 -8 0 -16 -36 -49 -44 -41 -3 4 -7 1 -7 -5 -3 -23 -5 -27 -36 -59
-17 -18 -38 -33 -47 -33 -9 0 -16 -4 -16 -9 0 -5 -12 -14 -27 -20 -16 -6 -44
-20 -63 -32 -41 -25 -43 -25 -185 -45 -60 -8 -135 -19 -165 -24 -68 -12 -154
-6 -200 14 -28 12 -31 15 -12 16 12 0 22 5 22 12 0 6 7 3 15 -8 8 -10 15 -14
14 -9 -3 20 1 26 14 18 16 -10 34 -13 87 -14 54 -1 186 57 210 91 8 13 21 28
28 36 6 7 12 18 12 24 0 6 6 13 14 16 14 5 25 42 32 104 5 42 50 85 94 88 17
1 39 11 50 22 11 11 29 20 40 20 11 0 20 4 20 9 0 5 9 7 20 4 11 -3 20 -1 20
5 0 14 33 19 98 16 48 -2 55 -5 77 -38z"/>
<path d="M7170 6276 c0 -2 7 -7 16 -10 8 -3 12 -2 9 4 -6 10 -25 14 -25 6z"/>
<path d="M7308 6203 c7 -3 16 -2 19 1 4 3 -2 6 -13 5 -11 0 -14 -3 -6 -6z"/>
<path d="M7368 6133 c7 -3 16 -2 19 1 4 3 -2 6 -13 5 -11 0 -14 -3 -6 -6z"/>
<path d="M3032 6114 c12 -11 66 -15 73 -4 4 6 -9 10 -36 10 -23 0 -40 -3 -37
-6z"/>
<path d="M7620 5711 c0 -5 7 -12 16 -15 14 -5 15 -4 4 9 -14 17 -20 19 -20 6z"/>
<path d="M4985 5398 c-115 -12 -341 -71 -460 -120 -126 -51 -175 -77 -261
-138 -152 -108 -209 -167 -195 -203 5 -15 13 -11 56 26 115 100 277 194 415
240 248 84 421 110 671 103 103 -3 199 -10 214 -16 14 -5 36 -10 47 -10 12 0
51 -12 87 -26 36 -14 74 -28 85 -29 40 -6 82 -23 134 -54 29 -17 56 -31 59
-31 18 0 155 -89 208 -135 33 -29 70 -55 82 -59 12 -4 25 -16 28 -27 4 -10 11
-17 16 -13 6 3 16 0 24 -6 11 -9 19 -9 28 -2 9 8 21 7 41 -3 16 -8 30 -15 33
-15 10 0 -95 114 -123 134 -40 27 -137 100 -155 118 -18 16 -36 27 -167 96
-127 67 -301 126 -449 152 -117 21 -316 30 -418 18z"/>
<path d="M2502 5228 c-5 -7 -17 -29 -27 -48 -17 -35 -17 -35 2 -15 18 18 47
75 39 75 -2 0 -8 -6 -14 -12z"/>
<path d="M7452 5156 c10 -7 15 -15 13 -18 -3 -3 1 -11 10 -18 11 -9 15 -9 15
-1 0 23 -21 51 -38 51 -16 -1 -16 -1 0 -14z"/>
<path d="M7617 5149 c4 -13 8 -18 11 -10 2 7 -1 18 -6 23 -8 8 -9 4 -5 -13z"/>
<path d="M2437 5101 c-10 -24 -16 -46 -13 -48 8 -8 37 57 34 75 -2 11 -10 0
-21 -27z"/>
<path d="M7640 5081 c0 -6 5 -13 10 -16 6 -3 10 -1 10 6 0 7 8 5 21 -7 22 -19
22 -19 8 4 -14 22 -49 31 -49 13z"/>
<path d="M7510 5065 c0 -5 5 -17 10 -25 5 -8 10 -10 10 -5 0 6 -5 17 -10 25
-5 8 -10 11 -10 5z"/>
<path d="M7673 5020 c3 -18 12 -37 19 -41 7 -5 10 -9 5 -9 -11 0 22 -60 33
-60 6 0 10 -7 10 -16 0 -14 3 -14 15 -4 19 16 29 7 45 -42 6 -21 16 -41 21
-44 16 -10 3 55 -15 75 -19 21 -21 35 -3 26 6 -4 4 0 -5 8 -10 8 -18 19 -18
26 0 6 -4 11 -10 11 -5 0 -9 3 -9 8 3 19 -2 26 -10 13 -6 -9 -4 -23 7 -39 14
-21 14 -24 2 -20 -8 2 -20 14 -26 26 -6 12 -18 30 -27 40 -10 10 -14 22 -11
25 4 4 13 -1 20 -11 7 -9 13 -12 13 -7 0 12 -18 35 -42 54 -18 14 -18 13 -14
-19z"/>
<path d="M7660 4966 c0 -4 9 -24 20 -46 11 -22 20 -49 20 -61 0 -12 8 -28 18
-35 16 -13 16 -14 -2 -7 -16 5 -18 3 -12 -13 32 -79 62 -171 59 -181 -2 -6 1
-14 6 -18 6 -3 11 1 11 10 0 9 5 13 11 10 6 -4 8 -12 6 -19 -6 -15 20 -52 30
-42 4 4 1 11 -7 16 -8 6 -12 10 -8 10 4 0 2 13 -3 30 -6 16 -15 27 -20 24 -10
-6 -39 55 -39 81 0 8 5 15 11 15 5 0 7 -5 3 -12 -5 -7 -3 -8 5 -4 7 5 10 10 7
14 -3 3 2 11 12 18 10 8 12 13 5 14 -15 0 -18 30 -3 30 5 0 -9 19 -30 43 -22
23 -40 47 -40 53 0 6 -13 26 -30 44 -16 18 -30 30 -30 26z m95 -196 c10 -11
13 -20 7 -20 -6 0 -16 9 -22 20 -6 11 -9 20 -7 20 2 0 12 -9 22 -20z"/>
<path d="M7760 4876 c0 -7 8 -20 18 -27 15 -13 16 -12 4 3 -8 9 -11 22 -7 28
3 5 1 10 -4 10 -6 0 -11 -6 -11 -14z"/>
<path d="M7856 4785 c8 -35 10 -39 17 -28 3 5 -1 19 -9 33 l-14 25 6 -30z"/>
<path d="M7687 4776 c-4 -10 -1 -13 8 -9 8 3 12 9 9 14 -7 12 -11 11 -17 -5z"/>
<path d="M7790 4747 c0 -2 11 -17 25 -33 19 -23 25 -25 25 -11 0 9 -4 17 -10
17 -5 0 -10 7 -10 15 0 8 -7 15 -15 15 -8 0 -15 -2 -15 -3z"/>
<path d="M7880 4688 c0 -9 7 -19 16 -22 15 -6 15 -4 3 11 -7 10 -15 20 -16 22
-2 2 -3 -3 -3 -11z"/>
<path d="M7625 4643 c21 -19 45 -66 45 -86 0 -7 -7 -3 -15 7 -19 26 -19 17 1
-22 18 -37 24 -41 16 -10 -3 13 -1 19 5 15 6 -4 13 0 17 8 7 19 -3 47 -15 39
-5 -3 -9 2 -9 10 0 8 -15 24 -32 36 -23 15 -27 16 -13 3z"/>
<path d="M2146 4573 c-6 -14 -5 -15 5 -6 7 7 10 15 7 18 -3 3 -9 -2 -12 -12z"/>
<path d="M8240 4540 c0 -5 5 -10 11 -10 5 0 7 5 4 10 -3 6 -8 10 -11 10 -2 0
-4 -4 -4 -10z"/>
<path d="M8350 4501 c0 -6 4 -13 10 -16 6 -3 7 1 4 9 -7 18 -14 21 -14 7z"/>
<path d="M7830 4481 c11 -22 30 -37 30 -24 -1 11 -26 43 -34 43 -4 0 -2 -9 4
-19z"/>
<path d="M8020 4442 c6 -13 14 -21 18 -18 3 4 -2 14 -12 24 -18 16 -18 16 -6
-6z"/>
<path d="M7866 4431 c-8 -12 18 -73 27 -64 4 3 0 17 -8 30 -9 13 -13 28 -10
33 3 6 4 10 1 10 -3 0 -7 -4 -10 -9z"/>
<path d="M7680 4411 c0 -5 5 -13 10 -16 6 -3 10 -2 10 4 0 5 -4 13 -10 16 -5
3 -10 2 -10 -4z"/>
<path d="M7515 4400 c3 -5 8 -10 11 -10 2 0 4 5 4 10 0 6 -5 10 -11 10 -5 0
-7 -4 -4 -10z"/>
<path d="M7935 4380 c10 -11 20 -20 23 -20 3 0 -3 9 -13 20 -10 11 -20 20 -23
20 -3 0 3 -9 13 -20z"/>
<path d="M7450 4355 c0 -11 43 -85 47 -81 5 5 -35 86 -42 86 -3 0 -5 -2 -5 -5z"/>
<path d="M7920 4340 c0 -6 7 -13 15 -17 24 -9 27 1 5 15 -13 8 -20 8 -20 2z"/>
<path d="M7586 4246 c3 -9 11 -16 16 -16 13 0 5 23 -10 28 -7 2 -10 -2 -6 -12z"/>
<path d="M7661 4193 c11 -34 19 -42 19 -20 0 7 -7 22 -15 33 -13 17 -14 16 -4
-13z"/>
<path d="M7530 4171 c0 -6 4 -13 10 -16 6 -3 7 1 4 9 -7 18 -14 21 -14 7z"/>
<path d="M7560 4090 c6 -11 13 -20 16 -20 2 0 0 9 -6 20 -6 11 -13 20 -16 20
-2 0 0 -9 6 -20z"/>
<path d="M7706 4087 c3 -10 9 -15 12 -12 3 3 0 11 -7 18 -10 9 -11 8 -5 -6z"/>
<path d="M7590 4055 c0 -5 5 -17 10 -25 5 -8 10 -10 10 -5 0 6 -5 17 -10 25
-5 8 -10 11 -10 5z"/>
<path d="M8100 4051 c0 -6 4 -13 10 -16 6 -3 7 1 4 9 -7 18 -14 21 -14 7z"/>
<path d="M7740 3987 c0 -16 31 -67 41 -67 6 0 6 6 0 18 -15 27 -40 58 -41 49z"/>
<path d="M2129 3963 c-13 -16 -12 -17 4 -4 16 13 21 21 13 21 -2 0 -10 -8 -17
-17z"/>
<path d="M7670 3886 c0 -2 8 -10 18 -17 15 -13 16 -12 3 4 -13 16 -21 21 -21
13z"/>
<path d="M7660 3860 c6 -11 13 -20 16 -20 2 0 0 9 -6 20 -6 11 -13 20 -16 20
-2 0 0 -9 6 -20z"/>
<path d="M7700 3846 c0 -2 8 -10 18 -17 15 -13 16 -12 3 4 -13 16 -21 21 -21
13z"/>
<path d="M7650 3826 c0 -2 7 -9 15 -16 9 -7 15 -8 15 -2 0 5 -7 12 -15 16 -8
3 -15 4 -15 2z"/>
<path d="M7680 3786 c0 -2 8 -10 18 -17 15 -13 16 -12 3 4 -13 16 -21 21 -21
13z"/>
<path d="M7544 3750 c0 -11 4 -20 8 -20 4 0 8 -5 8 -11 0 -5 -5 -7 -10 -4 -6
4 -5 -4 1 -19 17 -37 29 -22 17 22 -12 44 -24 60 -24 32z"/>
<path d="M7450 3710 c6 -11 13 -20 16 -20 2 0 0 9 -6 20 -6 11 -13 20 -16 20
-2 0 0 -9 6 -20z"/>
<path d="M7501 3594 c0 -11 3 -14 6 -6 3 7 2 16 -1 19 -3 4 -6 -2 -5 -13z"/>
<path d="M7798 3559 c9 -23 18 -37 20 -30 4 13 -20 71 -30 71 -3 0 1 -19 10
-41z"/>
<path d="M1970 3534 c0 -8 5 -12 10 -9 6 3 10 10 10 16 0 5 -4 9 -10 9 -5 0
-10 -7 -10 -16z"/>
<path d="M2027 3543 c-4 -3 -7 -11 -7 -17 0 -6 5 -5 12 2 6 6 9 14 7 17 -3 3
-9 2 -12 -2z"/>
<path d="M2040 3459 c0 -5 5 -7 10 -4 6 3 10 8 10 11 0 2 -4 4 -10 4 -5 0 -10
-5 -10 -11z"/>
<path d="M7594 3274 c3 -9 6 -18 6 -20 0 -2 4 -4 8 -4 4 0 8 9 8 20 0 11 -7
20 -14 20 -9 0 -12 -6 -8 -16z"/>
<path d="M7570 3197 c1 -7 8 -23 16 -37 l15 -25 -5 26 c-7 33 1 41 28 27 17
-8 19 -8 9 2 -15 17 -63 22 -63 7z"/>
<path d="M7396 3127 c3 -10 9 -15 12 -12 3 3 0 11 -7 18 -10 9 -11 8 -5 -6z"/>
<path d="M7613 3105 c0 -8 4 -12 9 -9 4 3 8 9 8 15 0 5 -4 9 -8 9 -5 0 -9 -7
-9 -15z"/>
<path d="M7630 2844 c0 -8 5 -12 10 -9 6 4 8 11 5 16 -9 14 -15 11 -15 -7z"/>
<path d="M7280 2707 c0 -19 10 -27 25 -20 17 6 8 33 -11 33 -8 0 -14 -6 -14
-13z"/>
<path d="M7420 2680 c0 -5 5 -10 11 -10 5 0 7 5 4 10 -3 6 -8 10 -11 10 -2 0
-4 -4 -4 -10z"/>
<path d="M7350 2580 c0 -5 5 -10 11 -10 5 0 7 5 4 10 -3 6 -8 10 -11 10 -2 0
-4 -4 -4 -10z"/>
<path d="M7305 2529 c-11 -17 1 -21 15 -4 8 9 8 15 2 15 -6 0 -14 -5 -17 -11z"/>
<path d="M7400 2529 c0 -5 5 -7 10 -4 6 3 10 8 10 11 0 2 -4 4 -10 4 -5 0 -10
-5 -10 -11z"/>
<path d="M7200 2430 c0 -5 5 -10 10 -10 6 0 10 5 10 10 0 6 -4 10 -10 10 -5 0
-10 -4 -10 -10z"/>
<path d="M7195 2390 c-3 -5 -1 -10 4 -10 6 0 11 5 11 10 0 6 -2 10 -4 10 -3 0
-8 -4 -11 -10z"/>
<path d="M7151 2194 c0 -11 3 -14 6 -6 3 7 2 16 -1 19 -3 4 -6 -2 -5 -13z"/>
<path d="M7051 2164 c0 -11 3 -14 6 -6 3 7 2 16 -1 19 -3 4 -6 -2 -5 -13z"/>
<path d="M6855 2030 c3 -5 8 -10 11 -10 2 0 4 5 4 10 0 6 -5 10 -11 10 -5 0
-7 -4 -4 -10z"/>
<path d="M6456 1893 c-6 -14 -5 -15 5 -6 7 7 10 15 7 18 -3 3 -9 -2 -12 -12z"/>
<path d="M6590 1880 c0 -5 5 -10 10 -10 6 0 10 5 10 10 0 6 -4 10 -10 10 -5 0
-10 -4 -10 -10z"/>
<path d="M6630 1869 c0 -5 5 -7 10 -4 6 3 10 8 10 11 0 2 -4 4 -10 4 -5 0 -10
-5 -10 -11z"/>
<path d="M6377 1849 c6 -23 9 -24 16 -5 3 8 0 17 -7 19 -10 4 -12 -1 -9 -14z"/>
<path d="M6532 1861 c-10 -6 -10 -10 3 -21 13 -11 15 -9 15 9 0 24 0 24 -18
12z"/>
<path d="M6345 1811 c-3 -2 -5 -9 -5 -14 0 -6 3 -7 6 -4 15 15 41 -13 38 -40
l-4 -28 11 30 c9 21 9 30 1 33 -6 2 -8 10 -6 17 4 9 -1 13 -16 12 -11 -1 -23
-3 -25 -6z"/>
<path d="M6410 1776 c0 -8 5 -18 10 -21 6 -3 10 1 10 9 0 8 -4 18 -10 21 -5 3
-10 -1 -10 -9z"/>
<path d="M6300 1717 c0 -8 7 -14 15 -14 11 0 12 4 4 14 -6 7 -13 13 -15 13 -2
0 -4 -6 -4 -13z"/>
<path d="M6395 1721 c-3 -5 -1 -12 5 -16 5 -3 10 1 10 9 0 18 -6 21 -15 7z"/>
<path d="M6047 1683 c-4 -3 -7 -11 -7 -17 0 -6 5 -5 12 2 6 6 9 14 7 17 -3 3
-9 2 -12 -2z"/>
<path d="M6188 1683 c7 -3 16 -2 19 1 4 3 -2 6 -13 5 -11 0 -14 -3 -6 -6z"/>
<path d="M6225 1670 c-3 -5 1 -10 10 -10 9 0 13 5 10 10 -3 6 -8 10 -10 10 -2
0 -7 -4 -10 -10z"/>
<path d="M5595 1650 c3 -5 8 -10 11 -10 2 0 4 5 4 10 0 6 -5 10 -11 10 -5 0
-7 -4 -4 -10z"/>
<path d="M6138 1633 c-11 -14 -10 -15 11 -8 30 9 19 -13 -12 -24 -21 -8 -21
-8 2 -21 15 -7 21 -8 17 -1 -4 6 -2 11 4 11 6 0 9 4 6 9 -3 5 1 14 9 21 20 17
19 25 -4 27 -11 1 -26 -5 -33 -14z"/>
<path d="M6220 1640 c0 -5 5 -10 11 -10 5 0 7 5 4 10 -3 6 -8 10 -11 10 -2 0
-4 -4 -4 -10z"/>
<path d="M5740 1635 c-1 -5 -2 -13 -2 -17 1 -3 -5 -12 -13 -18 -8 -7 -15 -17
-15 -23 0 -6 9 -1 21 11 11 13 18 30 16 40 -3 9 -6 13 -7 7z"/>
<path d="M5658 1563 c7 -3 16 -2 19 1 4 3 -2 6 -13 5 -11 0 -14 -3 -6 -6z"/>
<path d="M5813 1562 c2 -4 -4 -15 -15 -24 -10 -10 -18 -16 -18 -13 0 2 -12 -7
-26 -20 -15 -14 -32 -25 -38 -25 -7 0 -20 -14 -30 -31 l-18 -31 23 4 c13 2 29
8 36 13 7 6 18 15 25 21 7 5 21 13 31 17 9 3 17 11 17 17 0 5 7 10 15 10 8 0
15 4 15 8 0 5 11 14 25 20 25 12 34 32 14 32 -5 0 -7 -4 -4 -10 3 -6 -4 -10
-17 -9 -13 0 -17 3 -10 6 19 7 14 19 -8 20 -11 1 -19 -1 -17 -5z"/>
<path d="M6092 1558 c6 -18 28 -21 28 -4 0 9 -7 16 -16 16 -9 0 -14 -5 -12
-12z"/>
<path d="M5674 1545 c-10 -8 -14 -14 -9 -14 6 0 19 6 29 14 11 8 15 15 10 15
-6 0 -19 -7 -30 -15z"/>
<path d="M5714 1529 c-19 -22 -19 -22 4 -10 12 6 22 16 22 21 0 15 -5 12 -26
-11z"/>
<path d="M5925 1540 c-3 -5 -2 -10 4 -10 5 0 13 5 16 10 3 6 2 10 -4 10 -5 0
-13 -4 -16 -10z"/>
<path d="M5620 1501 c0 -11 -5 -21 -11 -21 -8 0 -8 -5 1 -15 14 -16 34 -10 24
7 -4 7 -2 8 5 4 15 -10 41 17 31 33 -5 10 -9 10 -15 2 -5 -9 -10 -9 -21 0 -11
9 -14 7 -14 -10z"/>
<path d="M5360 1486 c-6 -8 -17 -13 -25 -10 -7 3 -16 0 -20 -5 -3 -6 -11 -9
-16 -6 -5 4 -9 1 -9 -5 0 -6 -5 -8 -11 -4 -8 5 -8 1 0 -14 11 -21 11 -21 56 5
25 13 45 31 45 39 0 18 -4 18 -20 0z"/>
<path d="M5538 1493 c7 -3 16 -2 19 1 4 3 -2 6 -13 5 -11 0 -14 -3 -6 -6z"/>
<path d="M4499 1477 c6 -8 7 -18 3 -22 -4 -5 -1 -5 6 -1 10 6 10 11 1 22 -6 8
-14 14 -16 14 -3 0 0 -6 6 -13z"/>
<path d="M4860 1461 c0 -7 10 -22 23 -34 12 -13 22 -25 22 -27 1 -8 87 -120
92 -120 3 0 0 7 -7 15 -10 12 -10 15 1 15 11 0 11 2 -1 10 -12 8 -12 10 3 16
9 3 14 11 10 18 -3 6 -1 6 8 -1 18 -18 26 -16 32 7 4 14 0 20 -11 20 -15 0
-15 2 -2 11 12 9 11 10 -7 6 -13 -3 -25 -1 -28 3 -3 4 -21 18 -41 29 -29 17
-35 18 -30 6 4 -10 -6 -7 -29 11 -19 14 -35 21 -35 15z m123 -117 c-6 -16 -23
-19 -23 -4 0 6 5 10 11 10 8 0 7 6 -2 18 -13 15 -12 16 3 4 9 -8 14 -20 11
-28z"/>
<path d="M4538 1420 l32 -20 -21 -21 c-17 -17 -18 -23 -7 -37 11 -13 11 -15
-2 -7 -8 4 1 -8 19 -28 19 -21 31 -37 27 -37 -5 0 -15 8 -22 18 -8 10 -13 12
-14 5 0 -18 45 -44 64 -37 9 3 16 1 16 -5 0 -6 5 -11 10 -11 6 0 9 3 8 8 -1 4
2 18 6 31 7 20 4 29 -13 42 -12 10 -23 27 -24 39 -1 11 -6 20 -13 20 -6 0 -21
13 -32 28 -12 15 -32 28 -44 29 -18 2 -17 -1 10 -17z m44 -56 c7 -8 25 -27 41
-41 36 -35 35 -49 -3 -21 -16 12 -30 27 -30 34 0 7 -10 20 -22 28 -12 9 -17
16 -11 16 7 0 18 -7 25 -16z"/>
<path d="M5055 1431 c3 -6 14 -11 24 -11 9 0 22 -5 28 -11 9 -9 11 -7 9 7 -2
13 -13 20 -35 22 -22 2 -31 0 -26 -7z"/>
<path d="M4586 1417 c3 -10 9 -15 12 -12 3 3 0 11 -7 18 -10 9 -11 8 -5 -6z"/>
<path d="M4504 1405 c11 -8 22 -12 25 -9 6 6 -19 24 -34 24 -5 -1 -1 -7 9 -15z"/>
<path d="M4740 1388 c0 -8 5 -19 12 -26 7 -7 12 -31 13 -55 0 -23 5 -42 10
-42 6 -1 21 -7 33 -14 38 -21 39 -8 6 73 -6 15 -4 17 7 11 8 -4 1 7 -16 26
-16 19 -32 36 -34 39 -2 3 -1 -5 2 -17 3 -13 1 -23 -4 -23 -5 0 -9 6 -9 14 0
8 -4 18 -10 21 -5 3 -10 0 -10 -7z m65 -38 c3 -5 1 -10 -4 -10 -6 0 -11 5 -11
10 0 6 2 10 4 10 3 0 8 -4 11 -10z"/>
<path d="M3562 1354 c-8 -9 -7 -14 4 -18 9 -4 12 -2 8 5 -4 8 1 9 15 4 14 -4
21 -2 21 7 0 17 -33 18 -48 2z"/>
<path d="M3610 1325 c-13 -14 -19 -25 -13 -25 6 0 18 11 27 25 9 14 15 25 13
25 -2 0 -14 -11 -27 -25z"/>
<path d="M4732 1321 c4 -13 18 -16 19 -4 0 4 -5 9 -11 12 -7 2 -11 -2 -8 -8z"/>
<path d="M4700 1281 c0 -5 7 -12 16 -15 14 -5 15 -4 4 9 -14 17 -20 19 -20 6z"/>
<path d="M4690 1250 c0 -5 4 -10 9 -10 9 0 27 -39 23 -52 -3 -11 65 -38 97
-38 21 0 31 5 31 15 0 8 0 18 0 23 0 4 -8 7 -17 7 -10 0 -21 5 -25 10 -4 6 -8
2 -8 -7 0 -22 -26 -24 -34 -2 -3 8 -10 13 -15 10 -5 -3 -11 3 -14 13 -5 21
-47 49 -47 31z"/>
<path d="M4420 1246 c0 -2 8 -10 18 -17 15 -13 16 -12 3 4 -13 16 -21 21 -21
13z"/>
<path d="M4495 1241 c-3 -5 -2 -12 3 -15 5 -3 9 1 9 9 0 17 -3 19 -12 6z"/>
<path d="M4590 1237 c0 -2 24 -19 53 -37 28 -19 54 -38 55 -42 2 -4 8 -8 13
-8 33 0 -33 70 -71 75 -16 2 -34 6 -40 10 -5 3 -10 4 -10 2z"/>
<path d="M4520 1222 c0 -19 60 -72 74 -66 21 8 20 17 -4 32 -13 8 -20 8 -20 1
0 -5 -5 -7 -10 -4 -6 4 -7 11 -4 17 4 6 0 14 -7 19 -17 11 -29 11 -29 1z"/>
<path d="M4893 1158 c2 -7 10 -12 16 -10 6 1 11 -4 11 -12 0 -8 9 -14 19 -13
15 1 17 4 9 14 -6 7 -7 13 -2 14 12 1 -28 17 -44 18 -8 1 -12 -5 -9 -11z"/>
<path d="M4803 1128 c-2 -5 10 -8 26 -8 17 0 31 4 31 9 0 11 -50 9 -57 -1z"/>
</g>
</svg>
